<?xml version="1.0" encoding="UTF-8"?>
<svg width="140px" height="140px" viewBox="0 0 140 140" version="1.1" xmlns="http://www.w3.org/2000/svg" xmlns:xlink="http://www.w3.org/1999/xlink">
    <!-- Generator: Sketch 59 (86127) - https://sketch.com -->
    <title>1</title>
    <desc>Created with Sketch.</desc>
    <g id="页面-4" stroke="none" stroke-width="1" fill="none" fill-rule="evenodd">
        <g id="拍机备份-2" transform="translate(-312.000000, -244.000000)" fill="#3296FF">
            <g id="编组-7" transform="translate(312.000000, 244.000000)">
                <path d="M73.0122996,21.23462 C79.5620051,28.0741267 86.1089736,34.9164938 92.6536612,41.7612444 C92.9205213,42.0406025 93.1937678,42.3275882 93.3949393,42.6570019 C93.9998223,43.6504871 93.8132483,44.9095055 92.9839291,45.6760718 C92.2088943,46.3925825 90.9959352,46.4621837 90.1474568,45.8024027 C89.814908,45.5440203 89.5279764,45.2198505 89.2332898,44.9118891 C84.4288952,39.8939308 79.6254129,34.8750191 74.8278608,29.84991 C74.5372798,29.5457624 74.3005269,29.1853618 74.0386847,28.8511809 L73.6669052,29.0313811 L73.6669052,29.0313811 L73.6669052,30.1831375 C73.6669052,43.3878142 73.663712,56.5929676 73.6691861,69.7976444 C73.6710107,73.2881907 75.2187995,75.682757 78.0269891,76.5065297 C78.6382585,76.6857766 79.2983382,76.7525174 79.9356093,76.7529941 C92.8384105,76.7672957 105.741212,76.7639587 118.644013,76.7620518 C118.867993,76.7620518 119.092429,76.7353555 119.579164,76.7038919 C119.194612,76.2686463 118.946454,75.9668823 118.67777,75.686094 C113.635254,70.4121369 108.590001,65.1415168 103.547485,59.8675597 C103.252798,59.5595983 102.941689,59.2583111 102.701287,58.9074449 C102.034821,57.9325518 102.151145,56.6959392 102.950357,55.867876 C103.713531,55.0765202 104.979406,54.964491 105.872133,55.6400037 C106.176855,55.8707363 106.438697,56.1663029 106.70647,56.4461378 C113.39029,63.4258003 120.072741,70.406893 126.753368,77.3898925 C128.41155,79.1227709 128.415655,80.1815668 126.765228,81.906341 C115.013347,94.1890406 103.260097,106.470787 91.5054784,118.751103 C89.9070546,120.421054 88.8720023,120.41581 87.2662798,118.738231 C69.3419464,100.009796 51.4176131,81.2804072 33.4951044,62.5505417 C31.8962245,60.8796369 31.9007862,59.8093998 33.5142636,58.1232399 C45.2670574,45.8410171 57.0207634,33.5597477 68.7753819,21.2794317 C70.3947895,19.5875512 71.4229993,19.5746798 73.0122996,21.23462 Z M67.7941577,62.6825136 C59.0301974,62.7254981 50.2657809,62.7064293 41.5013644,62.7092896 C41.1387084,62.7097663 40.7760523,62.7464738 40.4850151,62.7622056 C56.0217486,78.9964401 71.5365859,95.207792 87.0368257,111.403889 L87.0368257,81.533069 L85.9706114,81.5337402 C85.8880955,81.5335266 85.8062584,81.5331643 85.7244213,81.5325923 C83.4107211,81.5144769 81.0901785,81.6017167 78.7842333,81.4544101 C73.7102415,81.1302403 69.5043434,76.7420296 69.1900414,71.4423295 C69.044979,68.9929404 69.0705246,66.5278195 69.1270898,64.0722331 C69.1526354,62.9776832 68.8438075,62.6768726 67.7941577,62.6825136 Z M120.189977,81.6031469 L91.7586534,81.6031469 L91.7586534,111.311882 C101.23196,101.412784 110.730812,91.4874664 120.189977,81.6031469 Z M52.4563675,98.0152867 C53.6542114,98.1171822 54.528446,98.9547228 54.5333669,99.9892612 C54.538684,101.022201 53.6706812,101.87133 52.4759532,101.981217 C52.1465573,102.011586 51.8109295,101.996002 51.4779726,101.996002 L36.6048558,101.996402 C31.6470018,101.996402 26.689593,101.996801 21.731739,101.995203 C21.3618363,101.995203 20.9857017,102.013584 20.6242565,101.959639 C19.551494,101.798205 18.772072,100.960265 18.7667003,100.006843 C18.7609438,99.0150609 19.5879947,98.1623358 20.7141726,98.0268748 C21.0422332,97.9873154 21.3787512,98.0036986 21.7117082,98.0036986 C31.6639167,98.0024998 41.6165704,98.0028994 51.5692241,98.003299 C51.8647902,98.003299 52.1630271,97.9905121 52.4563675,98.0152867 Z M42.3144999,83.0083906 C43.901281,83.0131837 44.8730984,83.7960583 44.8667003,85.0087151 C44.8602388,86.2173777 43.8879622,86.9814793 42.2915364,86.9926632 C40.233084,87.0066431 38.1737131,86.9958586 36.1152607,86.9958586 C34.0944685,86.9958586 32.0736763,87.007442 30.0533434,86.9918643 C28.5166229,86.980281 27.4602997,86.145481 27.4667003,84.9891433 C27.4736185,83.8356015 28.5322381,83.0119854 30.0758477,83.0083906 C34.1550923,82.9976061 38.2347961,82.9968073 42.3144999,83.0083906 Z M27.733855,70.0074781 C29.310509,70.0178644 30.3783082,70.8471675 30.3667003,72.0116273 C30.3544337,73.1796823 29.2945927,73.9882129 27.7038948,73.9918082 C23.34469,74.0021944 18.9854851,74.0033928 14.6262802,73.9914087 C13.0407318,73.9870145 11.9916577,73.1629045 12.0000336,71.9856616 C12.0085103,70.8096171 13.0543075,70.0162665 14.6567085,70.0070786 C16.8746974,69.9942955 19.0936226,70.0038829 21.3120796,70.0038829 C23.4528275,70.0038829 25.5935753,69.9930971 27.733855,70.0074781 Z M34.2691714,70.000115 C35.3615312,70.012149 36.2007973,70.9295438 36.1656347,72.0727774 C36.1316313,73.1666715 35.2788411,74.0138677 34.2251216,73.999828 C33.1582644,73.9857883 32.2571739,73.0142403 32.3016101,71.9267644 C32.34566,70.8609498 33.2367041,69.9884821 34.2691714,70.000115 Z M68.9738163,27.9354011 C59.4069948,37.9322266 49.9387062,47.8260806 40.3664106,57.82815 L68.9738163,57.82815 L68.9738163,27.9354011 Z M99.0290395,50.000778 C100.055688,50.031715 100.928281,50.9505834 100.933367,52.0068602 C100.939174,53.1173772 100.03896,54.0193709 98.9450092,53.9996837 C97.8444448,53.9795948 97.0251488,53.0707708 97.068331,51.9176653 C97.1084011,50.8425049 98.0004456,49.9702428 99.0290395,50.000778 Z M21.2199986,45.0166514 C22.640943,45.0314071 23.6146277,45.8824516 23.5998681,47.0234254 C23.5846613,48.1616077 22.6078458,48.9671886 21.1716945,48.9903192 C20.0217896,49.0094617 18.8714373,48.9943072 17.721085,48.9943072 C16.6449779,48.9943072 15.5688708,49.0062713 14.4927637,48.9915156 C12.9895234,48.9715755 11.9858724,48.1520364 12.0001847,46.9803548 C12.0140498,45.8445653 12.993996,45.0270203 14.4297,45.0150562 C16.6928347,44.9959137 18.9568639,44.9935209 21.2199986,45.0166514 Z M37.277221,45.0095134 C38.9286122,45.0286618 40.0029748,45.8009779 40.0327341,46.9550639 C40.0635023,48.1538294 38.9699726,48.9780056 37.2615848,48.9871809 C34.246308,49.0031378 31.2310311,49.0059303 28.2157543,48.9855852 C26.5739467,48.9744153 25.5293434,48.1697864 25.5333669,46.9921638 C25.5369094,45.8165359 26.579495,45.0338478 28.231895,45.0107102 C29.739029,44.9895672 31.2466674,45.006322 32.7543058,45.0059231 C34.2619442,45.0059231 35.770087,44.9919608 37.277221,45.0095134 Z" id="形状结合"></path>
            </g>
        </g>
    </g>
</svg>