<?xml version="1.0" encoding="UTF-8"?>
<svg width="140px" height="140px" viewBox="0 0 140 140" version="1.1" xmlns="http://www.w3.org/2000/svg" xmlns:xlink="http://www.w3.org/1999/xlink">
    <!-- Generator: Sketch 59 (86127) - https://sketch.com -->
    <title>2</title>
    <desc>Created with Sketch.</desc>
    <g id="页面-4" stroke="none" stroke-width="1" fill="none" fill-rule="evenodd">
        <g id="拍机备份-2" transform="translate(-687.000000, -244.000000)" fill="#3296FF">
            <g id="编组-6" transform="translate(687.000000, 244.000000)">
                <path d="M89.1173279,30.2424535 C105.596679,44.7083261 108.523134,70.150448 93.7644324,88.2335841 C94.6279375,88.8805323 95.4854792,89.5322521 96.3525623,90.1716452 C103.084085,95.1364854 109.818392,100.098145 116.549915,105.062985 C118.673692,106.628862 119.868764,108.73194 119.990816,111.366654 C120.151431,114.842758 118.200593,117.938725 115.094042,119.301014 C111.977552,120.667279 108.432887,120.006414 105.94057,117.530754 C100.191025,111.819955 94.458576,106.092058 88.7261266,100.363763 C87.3958835,99.0340798 86.0942649,97.6761646 84.7608413,96.3126825 C65.564948,108.8059 41.1609899,103.784994 28.2338574,86.4983156 C15.4796645,69.443855 17.7557081,45.4968315 33.5822617,30.8536147 C48.9842189,16.6032589 73.3154231,16.3710415 89.1173279,30.2424535 Z M91.5098572,90.7589485 C90.131509,92.000755 88.8358538,93.1686018 87.5322474,94.3432084 C90.8021965,97.6467398 94.0025722,100.898976 97.2248138,104.129741 C100.868074,107.783189 104.508153,111.43942 108.191965,115.051912 C111.027776,117.832954 115.644666,116.610632 116.514929,112.849823 C117.025002,110.648927 116.180579,108.923997 114.376442,107.599085 C108.035723,102.941615 101.708918,98.2646608 95.3761496,93.5964545 C94.0828797,92.6433292 92.7856343,91.6949756 91.5098572,90.7589485 Z M61.656514,23.3125116 C40.5384075,23.3184777 23.3335058,40.5486919 23.3672489,61.6574141 C23.4014889,82.7792582 40.6262688,99.9669258 61.7332435,99.9415055 C82.899455,99.9156312 100.028025,82.7430737 99.9871492,61.5898166 C99.9465246,40.3963986 82.8326646,23.3065487 61.656514,23.3125116 Z M71.9050129,27.9945319 C85.7643127,32.711721 94.1699156,42.296499 96.4432545,56.7800658 C99.3931634,75.5752227 86.0331035,93.5155815 67.2960299,96.4159749 C48.8672869,99.2683683 31.8579828,87.8655945 27.4419061,69.6984362 C23.1736044,52.1388765 33.5230478,33.7081187 50.7360418,28.2165313 C51.9681659,27.8233323 52.8995479,28.1665315 53.2218572,29.1329292 C53.5565477,30.1373269 53.0177679,30.988525 51.7321253,31.416124 C46.8184062,33.0497203 42.5429155,35.7113142 38.9447934,39.4345056 C38.5793498,39.8121047 38.301373,40.4573033 38.3001748,40.9793021 C38.2654277,54.7240705 38.2654277,68.469239 38.2989767,82.2140075 C38.3005742,82.7376063 38.562176,83.3848048 38.9224275,83.7660039 C51.2117176,96.7647741 72.3974632,96.6963742 84.5964907,83.6200042 C84.9120103,83.282405 85.1041178,82.6928064 85.1061148,82.2192074 C85.1384656,75.3300233 85.1284808,68.4408391 85.1284808,61.5520549 C85.1284808,54.7624704 85.1196941,47.973686 85.1416607,41.1845016 C85.144057,40.5025032 84.9627331,40.0053043 84.4758743,39.5153054 C78.4438578,33.4405194 71.185708,30.1693269 62.6191502,29.8557276 C62.2872555,29.8437276 61.9525651,29.8457276 61.6246643,29.8021277 C60.5734647,29.662128 59.9607975,28.9565297 60.0338862,27.9965319 C60.1033804,27.0849339 60.7675692,26.4949353 61.7999974,26.4837353 C65.2475486,26.4457354 68.6487704,26.8857344 71.9050129,27.9945319 Z M48.1682397,79.3294093 C49.1069034,79.3769027 49.6614593,80.223429 49.6282499,81.1996826 C49.5934402,82.2133153 48.9412569,82.9098855 47.9357744,82.9472646 C47.1063413,82.9780474 46.2757079,82.9534211 45.4454746,82.9529814 C44.6156415,82.9529814 43.7846079,82.9798064 42.9551749,82.9455056 C42.0033074,82.9063675 41.3643279,82.2313452 41.3015102,81.2691637 C41.2350916,80.2515732 41.8112535,79.3689871 42.79553,79.3214937 C44.5836325,79.2357417 46.3801373,79.23882 48.1682397,79.3294093 Z M57.1628024,79.3010852 C58.2666615,79.4390508 58.9247143,80.1886347 58.8874157,81.202726 C58.8501172,82.2168173 58.1303442,82.8965397 57.0189366,82.9554168 C56.7258767,82.9707951 56.4305966,82.9576137 56.1362046,82.9593712 C55.9892306,82.9606893 55.8422566,82.9615681 55.6948386,82.9606893 C54.2051173,82.9501442 53.3214972,82.2585585 53.333486,81.1130923 C53.3459188,79.9772925 54.2339792,79.2879037 55.729917,79.2672528 C56.2076935,79.2606621 56.6912424,79.2422081 57.1628024,79.3010852 Z M74.0633049,79.3385795 C75.0749823,79.5420672 75.6409712,80.3335554 75.545086,81.326329 C75.4558595,82.2495116 74.7797803,82.8797951 73.7792007,82.9515884 C73.4498174,82.9749323 73.1173267,82.955112 72.7861677,82.955112 L72.7861677,82.9617188 L72.6760773,82.9617188 C70.8911038,82.959957 69.9735359,82.3182217 70.0006146,81.0915693 C70.0272494,79.8741663 70.9483685,79.2535727 72.7462155,79.2592985 C73.1856892,79.2606199 73.6362608,79.2526918 74.0633049,79.3385795 Z M64.7709714,79.3319443 C65.792843,79.5266136 66.3692834,80.3026482 66.2889015,81.2936119 C66.2138488,82.2198325 65.541483,82.8716664 64.5520306,82.9491818 C64.1865372,82.9773692 63.8166028,82.9535861 63.4488888,82.9535861 C61.6414062,82.9606329 60.7398854,82.3493185 60.7407729,81.1249278 C60.7421059,79.9009776 61.6724931,79.2557502 63.4528857,79.2592593 C63.8925437,79.2601545 64.3424159,79.250465 64.7709714,79.3319443 Z M88.5368916,44.941293 L88.5368916,78.4528161 C95.29021,68.4256391 94.8608636,53.9912722 88.5368916,44.941293 Z M34.8765871,44.8804931 C31.5324784,49.9760814 29.8953708,55.5592686 29.902933,61.6252547 C29.9113465,67.6952408 31.5276857,73.281628 34.8765871,78.3596163 L34.8765871,44.8804931 Z M77.408085,74.6385896 C78.8603056,74.6451987 79.6809242,76.0384083 79.0373397,77.3540705 C78.6395928,78.1669964 77.9623795,78.3322253 77.221774,78.3322253 L55.9981711,78.3326659 C55.8373716,78.3326659 55.6765721,78.3344283 55.5157726,78.3322253 C54.1215326,78.3128384 53.3380215,77.6422296 53.3333655,76.4662409 C53.3291312,75.2867272 54.0979538,74.6341835 55.5092015,74.6333022 C59.142652,74.6310992 62.7768756,74.6328616 66.4103261,74.6328616 C70.0762457,74.6333022 73.7421654,74.622287 77.408085,74.6385896 Z M47.8793515,74.6474778 C48.9070841,74.663733 49.564769,75.3280004 49.6251768,76.3283554 C49.688785,77.3823088 49.0719054,78.1950698 48.0233701,78.2855718 C47.1656594,78.3598186 46.2987475,78.300509 45.4362362,78.300509 L45.4362362,78.3176429 C44.6397334,78.3176429 43.8408303,78.3589399 43.0467278,78.3075383 C41.9229828,78.2346095 41.2572969,77.4657815 41.2981021,76.3788784 C41.3377072,75.3319544 42.0105941,74.6597791 43.0999347,74.6457205 C44.6933403,74.625072 46.2867459,74.6228753 47.8793515,74.6474778 Z M47.8965474,67.2561508 C48.9592007,67.2858246 49.6276568,68.0468714 49.6296618,69.0819649 C49.6320545,70.1585145 48.9264175,70.8833418 47.8089924,70.9147611 C47.0126021,70.9370165 46.2154123,70.9191249 45.419022,70.9191249 L43.8919262,70.9255252 C43.6374497,70.9249433 43.3830028,70.9221796 43.1286004,70.9151975 C42.0083767,70.8846509 41.3003409,70.1676785 41.2963285,69.0937472 C41.2927449,68.0573445 41.9588022,67.2875701 43.0178573,67.2570235 C44.643421,67.2103309 46.2713835,67.2112036 47.8965474,67.2561508 Z M60.0163573,67.2637171 C61.0525173,67.2994853 61.7011638,68.1212823 61.6652829,69.1642316 C61.6309967,70.1626887 60.9767687,70.8409766 59.9764896,70.914694 L59.8770199,70.9182381 L59.8770199,70.9182381 L59.7775501,70.9181836 C59.0160782,70.9186198 58.2542076,70.9181836 57.4923369,70.9177474 C56.6973762,70.9173112 55.9020168,70.9399935 55.1078534,70.9116407 C54.0784709,70.875 53.3532785,70.1216861 53.3337433,69.1193032 C53.3146069,68.1247719 54.0242509,67.2903251 55.0488492,67.2602275 C56.7033563,67.2113733 58.3618502,67.2065751 60.0163573,67.2637171 Z M73.8631393,67.2451596 C74.9110202,67.2617619 75.5511251,67.9975051 75.5555878,69.0722844 C75.5607286,70.1955599 74.9028943,70.8976617 73.7948073,70.9164485 C72.814889,70.9326139 71.834232,70.9195068 70.8539444,70.9195068 C69.9043138,70.9195068 68.9539445,70.9369829 68.0046834,70.914264 C66.9826578,70.8906713 66.3041392,70.1509959 66.2963285,69.0993724 C66.2893647,68.0569238 66.9660365,67.2635095 67.9814135,67.2464703 C69.9416194,67.2137026 71.9029334,67.2150133 73.8631393,67.2451596 Z M73.7914395,59.8281679 C74.8995083,59.8357347 75.5420435,60.5238648 75.5553663,61.6343981 C75.5694503,62.7867711 74.9113084,63.4873641 73.7472843,63.5069487 C72.4835301,63.5278685 71.218634,63.5113997 69.9544992,63.5109546 C68.6903644,63.5105095 67.4254683,63.5323196 66.1617141,63.503833 C65.0764843,63.4793523 64.433949,62.7520531 64.4446072,61.6375138 C64.4560267,60.5252001 65.0970393,59.8361798 66.2054887,59.8281679 C68.734139,59.8103638 71.2631699,59.8103638 73.7914395,59.8281679 Z M47.9486497,59.8407156 C48.9575809,59.8616132 49.604065,60.5872498 49.6288683,61.6085655 C49.6556718,62.6814582 49.0015867,63.4497793 47.9538503,63.498244 C47.0925383,63.5382607 46.229226,63.506692 45.3667137,63.506692 C44.5706101,63.506692 43.7737065,63.5373715 42.978803,63.4991333 C41.9310667,63.4484454 41.272581,62.6832368 41.2969842,61.6143457 C41.3201872,60.5943639 41.9698718,59.860724 42.9736024,59.840271 C44.631018,59.8060345 46.290834,59.8064791 47.9486497,59.8407156 Z M57.4855623,59.8299863 L57.4855623,59.8389114 C58.0959484,59.8389114 58.7101977,59.7902697 59.3159479,59.8509602 C60.1395828,59.933071 60.7329707,60.725172 60.7406971,61.6453479 C60.7484235,62.5597225 60.1646936,63.4129604 59.3456946,63.4624946 C58.1283993,63.5365727 56.9029913,63.5356802 55.6853098,63.4687421 C54.8551075,63.4232242 54.2686733,62.6003317 54.2594016,61.6792632 C54.2497436,60.7202632 54.8763551,59.9147745 55.7509842,59.8393576 C56.3258288,59.7902697 56.9072409,59.8299863 57.4855623,59.8299863 Z M47.8544635,54.2816793 C48.924889,54.3021899 49.6033053,55.0161317 49.6289059,56.0543148 C49.6557065,57.1387557 48.9680901,57.8954642 47.8540635,57.9452132 C47.0580444,57.9805611 46.2600254,57.9521955 45.4628063,57.9521955 C44.6655873,57.9521955 43.8675682,57.9805611 43.0715492,57.9452132 C41.9575226,57.8954642 41.2699061,57.1378829 41.2971068,56.0538784 C41.3227074,55.0174409 42.0027236,54.3021899 43.0719492,54.2816793 C44.6659873,54.2520045 46.2608254,54.2515681 47.8544635,54.2816793 Z M66.2778835,54.2656329 C68.1478637,54.2616908 69.09506,54.8950611 69.0737547,56.1307026 C69.0524494,57.3615259 68.1190128,57.961169 66.2250642,57.958979 C65.9307853,57.9585409 65.6342871,57.9738715 65.3422276,57.9471525 C64.1912998,57.8407148 63.4797929,57.0829481 63.5201842,56.0242649 C63.5587999,55.0185814 64.2751892,54.3418476 65.394603,54.2686991 C65.6875503,54.2494264 65.9831607,54.2656329 66.2778835,54.2656329 Z M59.1050794,54.2910903 C60.0359364,54.3285889 60.709659,55.0981817 60.7397738,56.0548314 C60.7706608,57.0424392 60.0822669,57.8630475 59.1097125,57.9410968 C58.5688039,57.9838278 58.0228762,57.9485093 57.479265,57.9485093 L57.479265,57.9519976 C56.9680852,57.9519976 56.4549749,57.9803395 55.9449534,57.9458932 C54.9550251,57.8783085 54.2612259,57.1060995 54.2592915,56.1136954 C54.257365,55.1212913 54.9604303,54.3220485 55.9403203,54.2876021 C56.9943392,54.2505395 58.0510606,54.2479234 59.1050794,54.2910903 Z M77.6557443,54.2951761 C78.6096562,54.3370334 79.245857,55.094825 79.259095,56.0832678 C79.2719436,57.0708385 78.6536529,57.8443266 77.7083068,57.9354535 C77.1328449,57.9908272 76.5492066,57.9454818 75.9694618,57.9454818 C75.4220332,57.9454818 74.8711004,57.9890832 74.327176,57.9358895 C73.3705386,57.8421466 72.7674327,57.0917672 72.7779452,56.088936 C72.7884577,55.0847967 73.407527,54.3387774 74.370394,54.2956121 C75.4640832,54.2467786 76.5620552,54.2476506 77.6557443,54.2951761 Z M79.5531066,46.8938355 C80.5212743,46.9198395 81.1403697,47.760341 81.1100798,48.7802258 C81.0790512,49.8093663 80.4352067,50.5167627 79.4522634,50.5423259 C78.4423548,50.5683299 77.4317074,50.5480556 76.4214293,50.5476149 C75.4418105,50.5471741 74.461453,50.5678892 73.4822036,50.5414444 C72.4804215,50.5141182 71.8735159,49.8314036 71.8524607,48.7692072 C71.8310362,47.7039255 72.4076519,46.9185172 73.4005687,46.8925133 C75.4506759,46.8378608 77.5033688,46.8383016 79.5531066,46.8938355 Z M66.2427142,46.8518519 C66.6457525,46.8527575 67.0550051,46.8496592 67.4518292,46.9125098 C68.4496598,47.0709642 69.1287883,47.890678 69.0706407,48.8170608 C69.0111614,49.769115 68.2840945,50.4702093 67.257412,50.5441252 C66.9285008,50.5675836 66.5960386,50.5476661 66.2653518,50.5476661 C64.3442616,50.5569609 63.4937975,49.9740435 63.5190983,48.6754256 C63.5435115,47.4272653 64.4028531,46.8478888 66.2427142,46.8518519 Z M48.211925,46.9185619 C49.1345307,46.9638386 49.6810525,47.8427393 49.6258402,48.8357195 C49.5742287,49.7732136 48.9752952,50.4776659 48.0866971,50.5273815 C47.1928978,50.5779848 46.2950976,50.5384787 45.3992979,50.5384787 L45.3992979,50.5433615 C44.5699129,50.5433615 43.7389277,50.5757654 42.910743,50.5349276 C41.9681328,50.4878753 41.3379923,49.7785403 41.2983835,48.8037595 C41.2579745,47.8147743 41.8160989,46.954073 42.7439058,46.9123475 C44.5643117,46.8311157 46.3919192,46.8302279 48.211925,46.9185619 Z M59.3946956,46.9207412 C60.2183524,46.9817336 60.7690016,47.8667911 60.7396542,48.7656499 C60.7079899,49.7197134 60.0774078,50.4698754 59.196987,50.5344294 C58.6239412,50.5767234 58.0470339,50.542443 57.4720573,50.542443 L57.4720573,50.537991 C56.8970807,50.537991 56.3194011,50.5776138 55.7475137,50.5286418 C54.9188369,50.4574098 54.3137407,49.723275 54.2623828,48.8092795 C54.2129557,47.9179891 54.7609018,46.9946444 55.5714296,46.9296452 C56.8407029,46.8281396 58.1242638,46.826804 59.3946956,46.9207412 Z M45.4830127,40.3804836 C46.313172,40.3809221 47.1445316,40.3528588 47.9734908,40.3883764 C48.9260736,40.4287173 49.5617957,41.1031128 49.6246077,42.0655954 C49.6902203,43.0815736 49.1129095,43.9646897 48.130721,44.0120464 C46.3419776,44.0979902 44.5444325,44.0944823 42.7564892,44.0023997 C41.817509,43.9541659 41.2638027,43.1061289 41.2978092,42.1309302 C41.333016,41.1245988 41.9903422,40.423894 42.9921345,40.3861839 C43.8218938,40.3550512 44.6528533,40.3800451 45.4830127,40.3804836 Z M61.8650997,40.3825222 C62.8290432,40.4052751 63.4865285,41.1263675 63.517469,42.1419352 C63.5480412,43.1561902 62.9281264,44.0054865 61.9674979,44.0321774 C59.9221107,44.0886222 57.8737768,44.0873095 55.8276529,44.032615 C54.8747595,44.0072367 54.2349545,43.1500644 54.2600015,42.1546243 C54.2861536,41.1460576 54.9532158,40.4057127 55.9075825,40.3829598 C56.9153584,40.3584566 57.9242392,40.3772715 58.9323835,40.3772715 C59.9099555,40.3772715 60.8878959,40.3593317 61.8650997,40.3825222 Z M71.9024411,40.385418 C72.9954247,40.4002974 73.6597638,41.0633046 73.7017095,42.1149259 C73.745253,43.2085596 73.0845093,43.9800986 71.9659588,44.0488063 C71.1390304,44.0991336 70.3077078,44.0584341 69.478782,44.0601846 C68.7157708,44.0614975 67.9515611,44.0934444 67.1901478,44.0540578 C66.0751927,43.9962909 65.3605188,43.2370054 65.3705059,42.1853841 C65.3800935,41.1280736 66.1119451,40.3967963 67.2257017,40.3845427 C68.7844817,40.3666 70.3436612,40.3644118 71.9024411,40.385418 Z" id="形状结合"></path>
            </g>
        </g>
    </g>
</svg>