<?xml version="1.0" encoding="UTF-8"?>
<svg width="140px" height="140px" viewBox="0 0 140 140" version="1.1" xmlns="http://www.w3.org/2000/svg" xmlns:xlink="http://www.w3.org/1999/xlink">
    <!-- Generator: Sketch 59 (86127) - https://sketch.com -->
    <title>3</title>
    <desc>Created with Sketch.</desc>
    <g id="页面-4" stroke="none" stroke-width="1" fill="none" fill-rule="evenodd">
        <g id="拍机备份-2" transform="translate(-1102.000000, -244.000000)" fill="#3296FF">
            <g id="编组-5" transform="translate(1102.000000, 244.000000)">
                <path d="M78.8903677,24.4183501 C80.0681316,24.5064333 80.6666128,25.2813466 80.5344374,26.1945723 C80.3959856,27.1500198 79.5889035,27.6479444 78.3734807,27.4521231 C73.1998115,26.618609 68.0667548,27.1911495 62.9839099,28.072345 C58.9459152,28.7726425 54.8894601,29.5610231 50.9821639,30.7581532 C43.1487421,33.1578731 38.7027758,38.901113 36.401152,46.3692539 C35.3847307,49.6661845 34.587248,53.0217158 33.0354795,56.1348365 C32.5942795,57.0185798 32.8464465,57.7159654 33.547936,58.4020677 C36.9904031,61.7659705 37.0727358,62.4185866 34.8549216,66.6502177 C33.0037279,70.1830072 30.8294798,73.5090562 28.3539605,76.6472915 C27.8891314,77.236575 27.4804215,77.8688082 26.9690726,78.5891246 C27.7048981,79.0786776 28.3229472,79.5129057 28.9649947,79.9089159 C29.4065638,80.181173 29.8865303,80.3908254 30.339914,80.6448834 C32.9442859,82.1044431 33.7055865,84.4335509 32.4480744,87.1259107 C32.166371,87.7290255 31.8329789,88.3088456 31.4774345,88.9869403 C31.9622006,89.3662074 32.4532432,89.7614897 32.9568388,90.1414847 C34.1608162,91.0499787 34.2826539,91.6723845 33.4896016,92.9051846 C33.3607491,93.1050096 33.2533104,93.3179379 33.1119049,93.5672642 C33.2595869,93.6764582 33.3666563,93.7769167 33.4918168,93.8449809 C36.0035182,95.2175494 36.9065936,97.1379077 36.2324253,99.9150748 C35.8934952,101.311302 35.8595283,102.6573 36.3372795,104.020041 C36.918039,105.67615 38.2324087,106.46635 39.9322283,105.95423 C45.7645593,104.196571 51.5876601,102.407246 57.3926698,100.565871 C59.4609561,99.9099791 61.4945371,99.1288781 63.4926744,98.2873564 C64.4075643,97.9019016 65.2419675,97.2860475 66.035389,96.6763811 C66.9628319,95.9640723 67.4970715,95.0031652 67.5938032,93.8020313 C67.6813048,92.7210108 68.3683952,92.1652134 69.344204,92.2645799 C70.2336187,92.3552109 70.7460752,93.0482288 70.7002938,94.1012228 C70.6257144,95.8173883 69.9157333,97.2547452 68.7054794,98.4638867 C66.5688902,100.597537 63.8404655,101.680378 61.0426302,102.635461 C59.7459823,103.078061 58.4471192,103.514109 57.0341718,103.992014 C59.6422357,106.930425 61.4768152,110.17931 62.526465,113.785987 L98.0081703,113.785987 C97.2025651,112.082197 96.3467479,110.513807 95.7035929,108.864978 C94.2419104,105.118168 93.46658,101.20138 93.0039661,97.221987 C92.8939431,96.2752751 93.4078764,95.5418555 94.2492945,95.387892 C95.1416629,95.224829 95.8952103,95.751508 96.0890429,96.7389856 C96.5653173,99.1714637 96.946706,101.624689 97.4916526,104.04188 C98.1883423,107.134981 99.3679522,110.045365 101.232807,112.661653 C101.582074,113.152298 101.846794,113.710644 102.090839,114.263529 C102.81005,115.891975 102.168003,116.86635 100.380681,116.878725 C96.7255522,116.90384 93.0707922,116.929318 89.415663,116.93951 C80.2926082,116.964624 71.1695533,116.981731 62.0464985,116.999966 C60.4153509,117.003206 60.1469389,116.780087 59.6666033,115.207329 C58.8661669,112.588493 57.8143019,110.080307 56.2012454,107.830911 C56.0063052,107.559382 55.7973352,107.296589 55.5802426,107.041803 C53.9502027,105.131272 53.8268882,105.152383 51.414503,105.892354 C48.0200324,106.933701 44.5690736,107.799245 41.1897405,108.884269 C37.8366209,109.960922 33.8591758,108.570154 33.0376947,103.761251 C32.7999267,102.369756 32.9561004,100.875982 33.1528867,99.4590079 C33.3829014,97.804355 33.3094296,97.368671 31.9817685,96.5893899 C29.6380553,95.2128176 29.4161632,94.6490127 30.2287833,92.044736 C29.849979,91.7320772 29.4497608,91.4099549 29.0584035,91.0780052 C28.0297985,90.2051812 27.8248897,89.5117994 28.3425151,88.2680799 C28.6552317,87.5160972 29.0923704,86.8147078 29.4582525,86.0831081 C30.1985085,84.6049855 30.0079987,84.0116981 28.5714222,83.214946 C27.7159743,82.7410441 26.838374,82.2988084 26.0213234,81.7666697 C23.8507674,80.3529715 23.4110443,78.3925754 24.7859636,76.2228908 C25.2884516,75.4297785 25.9005934,74.7036384 26.4743379,73.9556596 C28.9443192,70.7348009 31.0450955,67.2962821 32.8623224,63.6772293 C33.2843236,62.8360716 33.1898072,62.2602553 32.5082548,61.6939025 C32.3443278,61.557774 32.2010763,61.3972588 32.0419489,61.2545787 C29.3973337,58.8752416 28.9686867,57.3894754 30.4739354,54.2024668 C31.807873,51.3776183 32.4632118,48.3700518 33.3869626,45.4294577 C35.3803003,39.0863788 38.822029,33.7249539 44.6920188,30.1652298 C48.1606995,28.0617896 51.9978468,26.8442766 55.9775072,26.1792852 C60.9340839,25.3505028 65.9098593,24.5632141 70.9088946,24.0823966 C73.5346804,23.8297945 76.2328303,24.220345 78.8903677,24.4183501 Z M106.378375,50.8239001 C107.641081,57.5021998 106.187132,63.5866867 101.854459,68.8443504 C100.849984,70.0629226 99.5372166,71.024455 98.3551854,72.0915703 C97.0622262,73.2591714 95.6932742,74.3495878 94.4827907,75.5976503 C93.8669244,76.232604 93.5258569,77.1395246 93.0299224,77.9750857 C95.4260387,79.1510606 96.1960517,81.011868 96.0685565,83.369279 C96.0228167,84.2150343 96.0836831,85.0684353 96.009491,85.9105499 C95.866149,87.53507 95.0435532,88.757647 93.639306,89.5400526 C93.204598,89.7825292 92.982742,90.0199086 92.9373624,90.5510998 C92.6510386,93.8940724 90.1076187,96.3126487 86.9097957,96.3331727 C83.7004478,96.3537896 81.0968819,93.9905534 80.743209,90.6745225 C80.6830629,90.109108 80.5465639,89.7876263 80.0135334,89.5029166 C78.6579071,88.7780354 77.8324302,87.5696575 77.6952108,86.0354289 C77.5720376,84.6544776 77.5626735,83.2436718 77.688728,81.8634486 C77.8518786,80.071088 78.9064146,78.8230255 80.7291629,77.9477798 C80.0736794,76.9603977 79.5907105,75.9245932 78.8358241,75.1651246 C77.5886047,73.9108727 76.2052465,72.7833203 74.8110836,71.6914476 C62.8791235,62.3484543 64.7414889,43.1789709 78.250571,36.4056467 C90.4047472,30.3116937 104.033041,38.4168186 106.378375,50.8239001 Z M89.8288581,90.2095938 L83.8120961,90.2095938 C84.0177451,92.1173673 85.3092636,93.315551 87.0037964,93.2296284 C88.6244973,93.1477106 89.8439847,91.8548664 89.8288581,90.2095938 Z M82.3513044,80.8560422 C81.3201785,80.8625956 80.7475308,81.4425733 80.7097145,82.488208 C80.6769403,83.3940363 80.687745,84.3024133 80.7043121,85.2096979 C80.7273621,86.4566682 81.2967683,87.0249954 82.544708,87.0381023 C83.9503959,87.0523013 85.3568041,87.0410149 86.762492,87.0406508 C88.2589392,87.0406508 89.754666,87.0570344 91.2500327,87.0355537 C92.3557109,87.0195342 92.9251171,86.4708673 92.9643741,85.3775383 C92.998949,84.4109088 93.0000295,83.4410025 92.9647342,82.474373 C92.9261976,81.4010683 92.3863241,80.8611393 91.3263857,80.8549499 C88.3349321,80.8378382 85.3431182,80.8378382 82.3513044,80.8560422 Z M88.337093,60.723206 L85.3848963,60.723206 L85.3848963,77.6670749 L88.337093,77.6670749 L88.337093,60.723206 Z M74.66414,43.0613734 C67.708452,50.5905255 68.594075,62.5927513 76.4912101,69.0697153 C78.4349707,70.6640169 80.3211064,72.3304061 82.193196,73.9287126 L82.193196,60.6798806 C81.6814147,60.6798806 81.2337411,60.6897107 80.7867878,60.6784243 C78.0856197,60.6107056 76.0982802,58.5897035 76.127813,55.9464905 C76.1559051,53.4099527 78.1392829,51.4060623 80.6499286,51.3773001 C83.2628586,51.3474456 85.2613629,53.3586176 85.3276315,56.0899376 C85.3387964,56.5617839 85.3290721,57.0343584 85.3290721,57.5222241 L88.3698672,57.5222241 C88.3731086,55.9683353 88.3100813,54.4348349 89.3412072,53.1682043 C90.3626089,51.9128602 91.6606103,51.298659 93.2759088,51.3871302 C95.5837869,51.5134656 97.4623593,53.406676 97.5779693,55.7200335 C97.6381153,56.9207657 97.3042509,57.9926141 96.5626902,58.9301173 C95.2632483,60.5732055 93.4516648,60.806216 91.5169081,60.6656815 L91.5169081,73.9410912 C93.2654643,72.4370812 95.0514767,70.8449641 96.895114,69.3252987 C102.878021,64.3942138 104.950718,58.0286579 103.072505,50.5930741 C101.416869,44.0400176 97.1490238,39.6033519 90.5959899,37.9162101 C84.3386438,36.305525 78.9982543,38.3694884 74.66414,43.0613734 Z M37.0887069,55 C37.9254669,54.9996568 38.541792,55.6235968 38.5311479,56.4600954 C38.5211906,57.2708397 37.8413445,57.932896 37.0481908,57.9054248 C36.2945231,57.8793272 35.6404288,57.2158973 35.6253212,56.4628425 C35.6091834,55.665147 36.2746085,55.0003435 37.0887069,55 Z M92.9384429,54.4916312 C92.1403377,54.5134759 91.5413987,55.0686963 91.4754902,55.9046215 C91.4358731,56.4121475 91.4682871,56.9254988 91.4682871,57.595404 C92.1630275,57.5608165 92.7623267,57.5975885 93.3331736,57.4865444 C94.1276772,57.3314468 94.6066843,56.5734345 94.5004384,55.8085046 C94.390951,55.0231864 93.7354676,54.4701505 92.9384429,54.4916312 Z M80.6520895,54.4930875 C79.8485821,54.5203934 79.2496431,55.1127498 79.2096658,55.9199128 C79.1675275,56.7638477 79.6893932,57.4304762 80.5598897,57.5382436 C81.0806749,57.6030496 81.6155062,57.5502582 82.2374952,57.5502582 C82.2374952,56.908023 82.2846756,56.3928513 82.2270507,55.8896942 C82.1251266,55.0024339 81.4840493,54.4646893 80.6520895,54.4930875 Z M61.0193231,53.5571963 C61.9158859,53.5833635 62.4810875,54.2444306 62.4492796,55.0766176 C62.4185204,55.8798829 61.8610086,56.4280177 60.9794758,56.4617596 C60.2244756,56.490337 59.4677276,56.4676128 58.7116787,56.4676128 C57.9846414,56.4676128 57.2565555,56.4899927 56.5309163,56.4621039 C55.6483349,56.4280177 55.089425,55.8826374 55.0576171,55.0810935 C55.0244111,54.2475293 55.5875155,53.5843964 56.4833792,53.5575406 C57.9940789,53.5124365 59.5082739,53.5127808 61.0193231,53.5571963 Z M115.650785,53.6415658 C116.448029,53.666497 117.006637,54.3127401 116.999975,55.0393536 C116.991848,55.811893 116.408704,56.3613637 115.541887,56.4118822 L115.458365,56.4145885 L113.452989,56.4148346 L113.452989,56.4112261 C112.729016,56.4112261 112.004036,56.4322208 111.281072,56.4056494 C110.465007,56.3761256 109.888921,55.8279671 109.846908,55.0941366 C109.804222,54.3406237 110.384005,53.6651848 111.223934,53.6402536 C112.698431,53.5962959 114.176289,53.5959679 115.650785,53.6415658 Z M55.0559995,34.5807054 C54.9597023,35.4344611 54.413119,35.9209523 53.5529919,36.153272 C51.1074266,36.8130446 48.8741005,37.9159881 46.9920668,39.6043312 C43.8704947,42.4055854 42.0782101,45.9889058 41.0651629,49.9966122 C40.8621683,50.7989969 40.7181076,51.6182497 40.4719718,52.4068332 C40.2069617,53.254455 39.4423614,53.6543056 38.5845454,53.486008 C37.7698706,53.3261444 37.1724424,52.5881652 37.3373033,51.7206083 C38.5702934,45.2317583 41.0647777,39.4180154 46.8634137,35.669081 C48.7084692,34.4764299 50.8809354,33.7560855 52.95826,32.9617515 C54.042182,32.5469497 55.0737182,33.4229406 55.0559995,34.5807054 Z M66.4352819,33.3339576 C67.4359068,34.2733339 68.4110806,35.2377733 69.3885987,36.1999343 C69.8473858,36.6517202 69.9943987,37.2376098 69.6712384,37.7600281 C69.4267751,38.1558291 68.9442114,38.412644 68.5316378,38.7618993 C68.0309905,38.4936921 67.6177472,38.3644709 67.3330982,38.103099 C66.342185,37.1936681 65.3844249,36.2494094 64.4363764,35.2970133 C63.7826884,34.6404914 63.7682885,33.8501914 64.3519864,33.2753686 C64.927647,32.7070557 65.770208,32.7096597 66.4352819,33.3339576 Z M107.098442,32.8571396 C107.464196,33.1429356 107.998734,33.3690815 108.171593,33.7489411 C108.34547,34.1307672 108.349885,34.8269034 108.09688,35.1045057 C107.020672,36.2876749 105.851414,37.3987397 104.652949,38.4698192 C104.123165,38.9434147 103.300982,38.8041219 102.810933,38.3170888 C102.31545,37.824484 102.204738,37.0516549 102.703618,36.5325025 C103.776769,35.4152105 104.906973,34.3470807 106.048045,33.2933718 C106.272184,33.086563 106.651183,33.0357621 107.098442,32.8571396 Z M86.1166967,24.000082 C86.9111605,24.0077075 87.5315331,24.6219066 87.5740196,25.5047312 C87.6082161,26.2211813 87.580928,26.9404043 87.5816189,27.6582408 C87.5826551,28.376424 87.6047619,29.0953004 87.576783,29.8120971 C87.5408594,30.7469137 86.9118513,31.3891885 86.089754,31.3808698 C85.2610938,31.3722044 84.6600646,30.7313161 84.647975,29.7836748 C84.6296678,28.3767706 84.6275953,26.9691732 84.6486658,25.5619224 C84.662828,24.6174006 85.2762922,23.9917632 86.1166967,24.000082 Z" id="形状结合"></path>
            </g>
        </g>
    </g>
</svg>