<?xml version="1.0" encoding="UTF-8"?>
<svg width="140px" height="140px" viewBox="0 0 140 140" version="1.1" xmlns="http://www.w3.org/2000/svg" xmlns:xlink="http://www.w3.org/1999/xlink">
    <!-- Generator: Sketch 59 (86127) - https://sketch.com -->
    <title>4</title>
    <desc>Created with Sketch.</desc>
    <g id="页面-4" stroke="none" stroke-width="1" fill="none" fill-rule="evenodd">
        <g id="拍机备份-2" transform="translate(-1465.000000, -244.000000)" fill="#3296FF">
            <g id="编组-2" transform="translate(1465.000000, 244.000000)">
                <path d="M107.615393,44.1412238 C109.199171,44.1636657 110.115207,45.1202529 110.117618,46.7455395 C110.132771,56.8121472 110.128638,66.8787548 110.121751,76.9453625 C110.121062,77.9478856 109.574884,78.5597788 108.790399,78.5215574 C107.993172,78.4829853 107.545485,77.8658323 107.544796,76.7514502 L107.542299,62.3957604 L107.542299,62.3957604 L107.542385,46.8356578 L99.4179009,46.8356578 L99.4179009,112.117125 L107.542385,112.117125 L107.542385,111.01712 C107.542385,102.059283 107.542041,93.1014473 107.544796,84.1436112 C107.544796,83.7947093 107.536186,83.4377424 107.601618,83.0986589 C107.734546,82.4047124 108.177756,82.0344205 108.877181,82.0537066 C109.575917,82.0726419 109.996054,82.4632718 110.09179,83.166686 C110.138625,83.51138 110.126227,83.8655417 110.126227,84.2151448 L110.127562,97.6517676 L110.127562,97.6517676 L110.127605,112.193217 C110.74128,112.193217 111.25371,112.164814 111.762351,112.199879 C112.507233,112.251075 113.000033,112.793188 113.000033,113.50081 C113.000033,114.209835 112.507922,114.738973 111.764417,114.808754 C111.508203,114.832598 111.248888,114.81752 110.991296,114.81752 L28.9812528,114.81752 L28.9812528,114.81752 C27.593079,114.81752 26.9831917,114.403046 27.0003865,113.47416 C27.0176291,112.577184 27.5999665,112.192866 28.9506034,112.187957 L29.8724941,112.187957 L29.8724941,112.187957 L29.8724941,90.3161936 L29.8724941,90.3161936 C29.8724941,87.6214088 30.5402364,86.9330728 33.1516285,86.9327221 C35.472713,86.9327221 37.7937975,86.9320208 40.1148819,86.9330728 C42.4631719,86.9341248 43.2145972,87.6890853 43.2149416,90.0521503 L43.2155012,100.556551 L43.2155012,100.556551 L43.215286,112.137813 L46.6015209,112.137813 L46.6015209,111.069718 C46.6015209,101.178087 46.6008321,91.2864563 46.6022096,81.3948256 C46.6022096,79.2323353 47.432841,78.3939189 49.5693407,78.3925163 C52.0908512,78.3911137 54.612706,78.3893604 57.1342164,78.3932176 C59.0954295,78.3963735 59.9635977,79.3052716 59.9642865,81.3783448 L59.9664818,96.1712577 L59.9664818,96.1712577 L59.9663527,112.161307 L63.3078189,112.161307 L63.3078189,64.4694034 C63.3078189,62.0646105 64.0988473,61.248636 66.4285411,61.2479346 C68.8928854,61.247584 71.3572296,61.2451294 73.8215739,61.248636 C75.8027607,61.2514412 76.691247,62.1620926 76.6915914,64.1997496 L76.6927536,87.6154915 L76.6927536,87.6154915 L76.6926245,112.129047 L80.0358126,112.129047 L80.0358126,110.972586 C80.0358126,98.3381312 80.0323689,85.7040265 80.0461438,73.0695713 C80.0464882,72.4681977 80.0833363,71.8208883 80.2978816,71.274217 C80.8175428,69.9501432 83.2605359,69.2393652 84.3893956,70.1047821 C84.7224058,70.360059 84.9879186,71.0340182 84.90458,71.4337651 C84.8222744,71.8279014 84.3057126,72.215726 83.8917744,72.4229632 C83.5746054,72.5814593 83.1196867,72.4545222 82.674066,72.4545222 L82.674066,112.137112 L90.7737554,112.137112 L90.7737554,72.4566261 C90.3456978,72.4566261 89.8856134,72.5891738 89.5804976,72.4247165 C89.149685,72.1922321 88.5990301,71.7788097 88.5335989,71.3702965 C88.467479,70.9621339 88.8239067,70.2997464 89.1930762,70.0406122 C89.9820383,69.4862264 91.9666688,69.8593235 92.6660935,70.5371399 C93.2756365,71.1283445 93.40581,71.871032 93.4047769,72.6922664 L93.3982338,86.216509 L93.3982338,86.216509 L93.3989225,112.127995 L96.7851575,112.127995 L96.7851575,47.6340996 C96.7851575,47.3423545 96.781025,47.0506094 96.7868793,46.7588644 C96.8202837,45.1398896 97.6925844,44.1664709 99.2770517,44.1422757 C102.05581,44.1001971 104.835946,44.1015997 107.615393,44.1412238 Z M74.0381855,63.9486805 L65.9460724,63.9486805 L65.9460724,112.154645 L74.0381855,112.154645 L74.0381855,63.9486805 Z M57.326033,81.0585473 L49.2483837,81.0585473 L49.2483837,112.149385 L57.326033,112.149385 L57.326033,81.0585473 Z M40.5742776,89.6397798 L32.4997275,89.6397798 L32.4997275,112.138865 L40.5742776,112.138865 L40.5742776,89.6397798 Z M105.095813,25.1357258 C107.864502,25.7850143 109.638937,28.5922739 109.072491,31.4290465 C108.487015,34.3613854 105.739054,36.2495221 102.895609,35.6378277 C102.4695,35.5461262 102.187806,35.4899107 101.901355,35.9385804 C98.4279211,41.3742639 94.9354584,46.7965964 91.4487724,52.2231449 C91.4185302,52.2702254 91.4073168,52.330657 91.3876084,52.3851157 C93.0437928,55.1105115 93.0774329,57.3155629 91.4946453,59.4106428 C90.1769016,61.1547274 87.8397584,61.8472316 85.760863,61.1094037 C83.3829438,60.2647664 82.3180111,58.3502787 82.2962639,54.8234613 C79.8741708,53.5680998 77.4286314,52.3007925 75.1601277,51.1251867 C74.0962145,51.6929629 73.1943857,52.2983331 72.2096458,52.6675984 C71.083889,53.0892143 69.9309481,52.8576769 68.8181037,52.3946021 C68.5727682,52.2927116 68.1208345,52.3071168 67.9570509,52.4722497 C64.9222987,55.5328301 61.9174488,58.624329 58.9054631,61.7102064 C59.6985559,63.3088335 59.8932612,64.8586235 59.3050677,66.4607641 C58.0155273,69.9731762 53.8183198,71.0915125 51.0632228,68.6169783 C50.5878428,68.1897408 50.2748872,68.1830652 49.7577119,68.4609804 C47.8548328,69.4851558 45.9390414,70.4864937 44.0021823,71.439697 C43.3450095,71.7632873 43.0667134,72.0917964 43.1085088,72.928704 C43.2488461,75.7489633 41.2735897,78.094202 38.5871322,78.4655754 C35.9944595,78.823949 33.5200372,77.0317299 32.8798543,74.3319824 C32.352485,72.1047962 33.2794589,69.7711519 35.1707848,68.5656817 C37.107304,67.3317523 39.5599792,67.4926691 41.2657743,68.9690276 C41.4805278,69.1545386 41.6833883,69.3548062 41.9263452,69.5800194 C44.2774202,68.3615493 46.625437,67.1536196 48.9591823,65.9165281 C49.1219464,65.8300969 49.2966035,65.5065066 49.2667011,65.3290766 C48.587781,61.3012389 53.0007614,57.5941807 57.0345252,59.8642312 C57.0559326,59.876177 57.0888932,59.865988 57.1731635,59.865988 C60.1416548,56.7969752 63.1315536,53.6900171 66.1459178,50.6090585 C66.5594542,50.1863886 66.2835368,49.8772035 66.1469372,49.5219921 C65.0663738,46.7182461 66.3331475,43.6067204 69.0168866,42.4831139 C71.6887327,41.3647776 74.7951827,42.7125432 75.7755052,45.5243702 C76.1000141,46.4543847 76.1040917,47.5035058 76.2916612,48.7472728 C76.8570881,49.043458 77.6780445,49.4780738 78.5027386,49.9056626 C79.9917415,50.6782738 81.4742882,51.4642362 82.9809606,52.1974966 C83.2113449,52.3099275 83.6456091,52.2839279 83.8352174,52.1275786 C85.5919825,50.6747604 86.8400673,50.3627646 89.2152681,50.9108653 C92.8232627,45.3068867 96.4506259,39.6730436 100.090901,34.0191738 C98.979756,32.5733824 98.4870462,30.9814309 98.9039806,29.1688337 C99.5747455,26.2537107 102.303678,24.481167 105.095813,25.1357258 Z M37.9167072,70.389522 C36.4470729,70.4018191 35.3019475,71.6016678 35.3056762,73.1251068 C35.3097629,74.6288703 36.4878489,75.8561241 37.9330176,75.8621156 C39.4077488,75.8677185 40.6153974,74.5986545 40.5936502,73.0650265 C40.5719031,71.5630197 39.3856618,70.3772249 37.9167072,70.389522 Z M54.4309789,61.8286102 C52.9892082,61.8380966 51.7934526,63.0765934 51.7917511,64.5620869 C51.7897148,66.087634 53.0136738,67.3198066 54.5081135,67.295915 C55.9682333,67.2723748 57.1075822,66.0503912 57.0899126,64.5269523 C57.0719032,63.0189726 55.8893998,61.8191238 54.4309789,61.8286102 Z M87.4530662,53.2634763 C86.0184313,53.2666444 84.8267533,54.507952 84.8206101,56.00504 C84.8141807,57.513371 85.9766359,58.7434355 87.4265618,58.7627596 C88.8972154,58.7827863 90.1347664,57.5070468 90.1177764,55.987824 C90.101466,54.507952 88.8805652,53.2603201 87.4530662,53.2634763 Z M70.9000573,44.7289215 C69.4647428,44.7633535 68.262531,46.0429578 68.2890354,47.5091273 C68.3155398,48.980567 69.5530907,50.2369825 70.9676774,50.2285924 C72.3897397,50.2197665 73.6126793,48.954216 73.6201909,47.4827763 C73.6279703,45.9740939 72.3639149,44.6937868 70.9000573,44.7289215 Z M104.026123,27.6306382 C102.585372,27.5972602 101.354617,28.8044872 101.317579,30.2878726 C101.279181,31.8060414 102.406297,33.0550786 103.857583,33.1042672 C105.335712,33.1541584 106.549817,32.0045522 106.601806,30.5064102 C106.654815,28.9517014 105.502893,27.6650701 104.026123,27.6306382 Z" id="形状结合"></path>
            </g>
        </g>
    </g>
</svg>