<?xml version="1.0" encoding="UTF-8"?>
<svg width="90px" height="90px" viewBox="0 0 90 90" version="1.1" xmlns="http://www.w3.org/2000/svg" xmlns:xlink="http://www.w3.org/1999/xlink">
    <!-- Generator: Sketch 59 (86127) - https://sketch.com -->
    <title>安卓</title>
    <desc>Created with Sketch.</desc>
    <g id="页面-4" stroke="none" stroke-width="1" fill="none" fill-rule="evenodd">
        <g id="拍机备份-2" transform="translate(-691.000000, -740.000000)" fill="#87B940" fill-rule="nonzero">
            <g id="编组-8" transform="translate(691.000000, 740.000000)">
                <path d="M15.5,30 C12.4589258,30 10,32.3878803 10,35.3326515 L10,57.6673485 C10,60.6121197 12.4676145,63 15.5,63 C18.5410742,63 21,60.6121197 21,57.6673485 L21,35.3326515 C21,32.3878803 18.5410742,30 15.5,30 L15.5,30 Z M23,65.3389631 C23,68.4614481 25.4621092,70.9895726 28.4930224,70.9895726 L32.2390037,70.9895726 L32.2390037,82.7093553 C32.2390037,85.6309297 34.5467232,88 37.3826179,88 C40.2266384,88 42.5262321,85.6309297 42.5262321,82.7093553 L42.5262321,70.9895726 L49.4737679,70.9895726 L49.4737679,82.7093553 C49.4737679,85.6309297 51.7814874,88 54.6173821,88 C57.4614026,88 59.7609963,85.6309297 59.7609963,82.7093553 L59.7609963,70.9895726 L63.5069776,70.9895726 C66.5378908,70.9895726 69,68.4614481 69,65.3389631 L69,31 L23,31 L23,65.3389631 Z M57.2762412,10.8520537 L60.8401318,4.09098698 C61.0336462,3.73779692 60.9046366,3.28369543 60.5579232,3.09028183 C60.219273,2.89686823 59.7838656,3.02300754 59.5984143,3.38460687 L55.9942082,10.2129479 C52.9705454,8.81700623 49.5840431,8.03494254 46.0040264,8.03494254 C42.4240097,8.03494254 39.0375074,8.81700623 36.0138446,10.2045386 L32.4096386,3.38460687 C32.2241872,3.02300754 31.7887798,2.89686823 31.4501296,3.09028183 C31.1034162,3.28369543 30.9744066,3.73779692 31.167921,4.09098698 L34.7318116,10.8520537 C27.7330401,14.6194142 23,21.7841267 23,30 L69,30 C69.0080528,21.7757174 64.2750127,14.6194142 57.2762412,10.8520537 L57.2762412,10.8520537 Z M35,21 C33.8953975,21 33,20.1046025 33,19 C33,17.8953975 33.8953975,17 35,17 C36.1046025,17 37,17.8953975 37,19 C36.9916318,20.1046025 36.0962343,21 35,21 Z M56,21 C54.8953975,21 54,20.1046025 54,19 C54,17.8953975 54.8953975,17 56,17 C57.1046025,17 58,17.8953975 58,19 C57.9916318,20.1046025 57.0962343,21 56,21 Z M75.5,30 C72.4589258,30 70,32.3878803 70,35.3326515 L70,57.6673485 C70,60.6121197 72.4676145,63 75.5,63 C78.5410742,63 81,60.6121197 81,57.6673485 L81,35.3326515 C81,32.3878803 78.5410742,30 75.5,30 Z" id="形状"></path>
            </g>
        </g>
    </g>
</svg>