<?xml version="1.0" encoding="UTF-8"?>
<svg width="90px" height="90px" viewBox="0 0 90 90" version="1.1" xmlns="http://www.w3.org/2000/svg" xmlns:xlink="http://www.w3.org/1999/xlink">
    <!-- Generator: Sketch 59 (86127) - https://sketch.com -->
    <title>ios</title>
    <desc>Created with Sketch.</desc>
    <g id="页面-4" stroke="none" stroke-width="1" fill="none" fill-rule="evenodd">
        <g id="拍机备份-2" transform="translate(-437.000000, -740.000000)" fill="#322A31" fill-rule="nonzero">
            <g id="ios" transform="translate(437.000000, 740.000000)">
                <path d="M57.0605244,16.8000805 C59.7704656,13.2180332 61.8236063,8.16060338 61.0839814,3 C56.6462322,3.31564126 51.4690286,6.2177921 48.4515636,9.99403316 C45.6941603,13.4183473 43.4280793,18.5061171 44.3097496,23.4482198 C49.1616206,23.6060405 54.1553666,20.6371765 57.0605244,16.8000805 Z M81,65.3649414 C79.0592516,69.7787603 78.1303748,71.7579447 75.6334592,75.6678742 C72.1423957,81.1322277 67.2314741,87.9320671 61.1430321,87.9806811 C55.734994,88.0413612 54.3386538,84.3620858 47.0017966,84.4045794 C39.6649395,84.4470729 38.1266391,88.0535147 32.7126362,87.999397 C26.6242794,87.9380127 21.9735899,81.8060037 18.4885763,76.3419126 C8.74359264,61.0785157 7.72004726,43.1619836 13.7255796,33.6299674 C18.0033892,26.866501 24.7427522,22.9140779 31.079582,22.9140779 C37.5289745,22.9140779 41.5819994,26.5507723 46.924937,26.5507723 C52.1021407,26.5507723 55.2557716,22.9079574 62.7109857,22.9079574 C68.355738,22.9079574 74.3376671,26.0651569 78.5976678,31.5293355 C64.6398047,39.3916881 66.9001767,59.8824015 81,65.370887 L81,65.3649414 L81,65.3649414 L81,65.3649414 Z" id="形状"></path>
            </g>
        </g>
    </g>
</svg>