<?xml version="1.0" encoding="UTF-8"?>
<svg width="130px" height="130px" viewBox="0 0 130 130" version="1.1" xmlns="http://www.w3.org/2000/svg" xmlns:xlink="http://www.w3.org/1999/xlink">
    <!-- Generator: Sketch 59 (86127) - https://sketch.com -->
    <title>1</title>
    <desc>Created with Sketch.</desc>
    <g id="页面-4" stroke="none" stroke-width="1" fill="none" fill-rule="evenodd">
        <g id="入口备份-3" transform="translate(-246.000000, -534.000000)" fill="#3296FF">
            <g id="编组-5" transform="translate(246.000000, 534.000000)">
                <path d="M87.0513966,13 C87.9222106,13 88.5910441,13.26662 89.2018233,13.8802458 C95.8183967,20.5295421 102.44142,27.1719709 109.084199,33.7954132 C109.764724,34.4740777 109.980008,35.2173769 109.978843,36.1444811 C109.961463,48.1253333 109.967107,60.1065895 109.967107,72.0870377 C109.967107,83.7653187 109.950175,95.4440036 109.978843,107.122285 C109.986459,110.212228 109.000746,112.785497 106.50925,114.689394 C104.809147,115.988955 102.851026,116.436551 100.746559,116.435341 C87.8153746,116.427664 74.8841907,116.431299 61.9530068,116.431299 C53.4557172,116.431299 44.9580244,116.439783 36.4603317,116.427664 C32.1336765,116.422008 28.8745746,114.046682 27.7570301,110.025191 C27.5002206,109.101723 27.4526484,108.098269 27.4445853,107.130364 C27.4115266,103.125839 27.4171707,99.120507 27.443779,95.1159825 C27.4482137,94.4348942 27.2788887,94.0515295 26.6201341,93.7239123 C16.4755548,88.6795768 10.1355455,80.5687281 8.44511824,69.3776313 C6.46522597,56.272943 11.1264995,45.6049834 21.7048732,37.6205764 C23.2203313,36.4769459 24.958734,35.6181121 26.6402918,34.714438 C27.2317196,34.39692 27.451842,34.079402 27.4461979,33.4104327 C27.4139455,29.6074877 27.4095108,25.8041387 27.4369253,22.0011937 C27.4675651,17.6367346 29.821988,14.4587265 33.8817548,13.3340825 C34.7102375,13.1042253 35.6044344,13.0258557 36.4687979,13.0246438 C53.3299329,13.0072732 70.1906648,13.0161605 87.0513966,13 Z M36.442996,16.4607868 C32.9847358,16.4624027 30.8863161,18.5957522 30.8726089,22.0884506 C30.8601111,25.3872448 30.8685773,28.686443 30.8722057,31.9852372 C30.8726089,32.2736696 30.9056675,32.5621021 30.9270347,32.9111295 C31.3064032,32.8206409 31.5994966,32.75843 31.8881553,32.6800604 C36.8973513,31.3162679 41.9726646,31.0726759 47.0467684,32.1096591 C55.1642864,33.7679434 61.9094661,37.8358908 66.7586096,44.5821391 C74.5947257,55.4839955 75.4836816,67.119052 69.6629354,79.225134 C69.2174496,80.1514302 69.1884224,80.6527533 69.964495,81.4178667 C74.8966885,86.2816289 79.8131589,91.1639737 84.6373069,96.1351911 C88.455181,100.068617 87.6178289,106.391912 83.0170285,109.336428 C79.7341406,111.43746 75.3470122,111.049651 72.5188826,108.266723 C67.6056375,103.431238 62.7391582,98.5476818 57.9037219,93.6342316 C57.1445818,92.8626547 56.6220934,92.7519678 55.6408151,93.2690455 C49.6422778,96.4308949 43.2490521,97.5535191 36.5296743,96.6555006 C34.6743568,96.4078688 32.8432286,95.978048 30.9105054,95.6148817 L30.910455,102.017455 C30.9109085,104.142624 30.9123196,106.261027 30.9161496,108.37943 C30.9165527,108.609691 30.9842827,108.843588 31.0447559,109.069001 C31.7285061,111.621669 33.6797744,112.985461 36.6655374,112.985461 C57.9650014,112.987481 79.2640623,112.953548 100.563123,113.019839 C103.995581,113.030705 106.571739,110.871906 106.558887,107.03624 C106.484255,84.1458556 106.522151,61.2550676 106.522151,38.3646835 L106.522151,37.1434914 L105.250602,37.1434914 C100.715112,37.1434914 96.1800263,37.1556104 91.644537,37.1390478 C87.9584945,37.1257168 85.9157101,35.0614457 85.9112754,31.3748431 C85.9052281,26.7966855 85.9096628,22.2185279 85.9096628,17.6403703 L85.9096628,16.507647 C85.508524,16.4870447 85.2146243,16.458767 84.9207246,16.458767 C68.7614817,16.4554887 52.6022389,16.4518995 36.442996,16.4607868 Z M102.688191,97.1675236 C102.732697,98.3985305 102.698616,99.6323387 102.698616,100.864946 L102.703428,100.864946 C102.703428,101.897856 102.726683,102.931165 102.699017,103.962874 C102.622034,106.841893 100.639321,108.956135 97.7460428,109.0878 C95.4810584,109.191051 93.207654,109.141027 90.9386601,109.109411 C89.7698816,109.093403 89.0168916,108.334229 89.0533783,107.34294 C89.0890631,106.36886 89.8043636,105.727344 90.9542972,105.714537 C92.9566573,105.692526 94.9594183,105.712536 96.9621794,105.704933 C98.7095332,105.698129 99.2804905,105.115442 99.2845001,103.349371 C99.2885096,101.384002 99.2696648,99.4182332 99.2925191,97.4528642 C99.3061515,96.2726824 99.901567,95.5687354 100.865859,95.4954992 C101.886285,95.4174608 102.648898,96.0765857 102.688191,97.1675236 Z M67.29158,83.6497842 C64.8621704,86.0840891 62.4968623,88.4537593 60.0464886,90.9094745 C60.1130091,90.9817846 60.2633858,91.1571062 60.4266634,91.3203089 C65.009725,95.9065458 69.5927865,100.493187 74.1814922,105.074172 C74.4895023,105.381591 74.8212986,105.671639 75.1724462,105.92735 C77.3462558,107.509285 80.4505463,107.10047 82.1478272,105.020444 C83.915257,102.854374 83.691103,100.04236 81.5213249,97.8540705 C76.9092363,93.201583 72.2769899,88.5692938 67.6495813,83.9321571 C67.4943668,83.7766298 67.3024652,83.6582675 67.29158,83.6497842 Z M40.7208695,34.9333881 C24.6446765,34.8315885 11.4994175,47.9928321 11.4395542,64.269873 C11.3812932,80.301706 24.3802071,93.3199453 40.6285471,93.5017305 C56.5418657,93.6794759 69.8217783,80.5836749 69.8800298,64.3696529 C69.93829,48.0037393 56.9921894,35.0363997 40.7208695,34.9333881 Z M40.5466158,39.0260188 C54.132192,39.018451 65.9780676,50.3822261 66.2780299,63.7174066 C66.6027524,78.1528601 54.9817472,90.0032101 40.2795316,90.0235339 C26.2072777,90.1773569 14.4774904,78.7769193 14.3756087,64.7503322 C14.2708857,50.332413 26.0834772,39.0343912 40.5466158,39.0260188 Z M97.4363901,85.5009558 C98.4561934,85.6390203 99.101978,86.3879671 99.0685419,87.3667381 C99.0358833,88.3217196 98.4110934,88.9840043 97.412285,89.0863845 C97.0262139,89.1258922 96.635866,89.1118733 96.2474621,89.1122981 C94.1417609,89.1144222 92.0364484,89.1131478 89.9307472,89.1131478 L89.9307472,89.0944559 L89.9307472,89.0944559 C87.4693007,89.0944559 85.0070765,89.1275914 82.5464076,89.0787378 C81.5114414,89.057922 80.8462171,88.266069 80.8558319,87.2864483 C80.8648792,86.3501587 81.4939458,85.6504903 82.4748697,85.507328 C82.7299177,85.4699444 82.9915752,85.4741926 83.2501224,85.4733429 C84.610508,85.4703692 85.9708936,85.4720685 87.3312793,85.4720685 C90.4085734,85.4720685 93.4858676,85.4712189 96.5631618,85.4729181 C96.8543675,85.4733429 97.1486836,85.461873 97.4363901,85.5009558 Z M40.0445137,42.4778749 C27.5942485,42.5739146 17.7872241,52.5716138 17.871652,65.082287 C17.9503972,76.8222511 28.2311104,86.680872 40.3233691,86.6130788 C52.8117893,86.5421922 62.8367836,76.7134592 62.7826129,64.5933211 C62.726378,52.1077538 52.7245201,42.3794441 40.0445137,42.4778749 Z M96.8700861,74.5441008 C98.2802471,74.5670804 99.0912992,75.2564681 99.0693465,76.4131075 C99.047793,77.5476184 98.2958135,78.177855 96.9068069,78.1812593 C93.3508702,78.1897703 89.7945344,78.1842382 86.2385977,78.1842382 C82.8487032,78.1842382 79.4588086,78.1850893 76.0689141,78.1829615 C75.7368298,78.1829615 75.4019514,78.1906214 75.0738585,78.1463644 C74.2153087,78.0306154 73.5639125,77.3271846 73.5702522,76.4518324 C73.576685,75.5462663 73.9850051,74.8858159 74.8499411,74.6696375 C75.232317,74.5743148 75.6374439,74.5492074 76.0321932,74.5487819 L86.3016119,74.5435157 L86.3016119,74.5435157 L96.5707312,74.5436753 C96.6705162,74.5436753 96.7703011,74.5423987 96.8700861,74.5441008 Z M36.5029658,73.6353498 C39.7584112,73.6319496 43.013042,73.6353498 46.2684874,73.6383249 C47.1824396,73.639175 47.9652453,74.0361435 48.0629942,74.9920132 C48.1240873,75.5874661 47.8149564,76.3635524 47.4207025,76.825124 C47.1282704,77.167265 46.4342533,77.2352682 45.9149623,77.2484438 C44.0512167,77.295196 42.185842,77.2667196 40.3208746,77.2667196 C38.5577289,77.2667196 36.7945833,77.274795 35.0314376,77.2607694 C34.6286307,77.2577942 34.2140125,77.2301679 33.8270898,77.125188 C32.9473498,76.8863268 32.5323243,76.2067201 32.5950465,75.307378 C32.6577687,74.4071859 33.1611755,73.7747563 34.0649454,73.6893273 C34.8725957,73.6123987 35.6900208,73.6361998 36.5029658,73.6353498 Z M77.9871161,64.5287587 L82.8302646,64.5276916 L82.8302646,64.5276916 L87.6731035,64.527905 C90.9705487,64.527905 94.2675812,64.5261977 97.5650264,64.5304661 C97.9071519,64.5308929 98.2616582,64.5150998 98.5889265,64.598334 C99.4543511,64.8181577 99.9442219,65.4148831 99.9793011,66.3424112 C100.011904,67.2024982 99.3635579,67.9746557 98.5055618,68.125331 C98.2038807,68.1782594 97.8894059,68.165881 97.5811216,68.165881 C90.9862312,68.1680152 84.3917535,68.1680152 77.796863,68.1667347 C77.5224199,68.1667347 77.2446751,68.1778326 76.9739462,68.141551 C76.0226807,68.0139252 75.3957947,67.297684 75.3916471,66.3586312 C75.3875408,65.4212857 76.0045221,64.6960809 76.9586764,64.5590645 C77.2962622,64.5104045 77.6441653,64.5291856 77.9871161,64.5287587 Z M52.8286598,62.7099115 C53.261732,62.7107602 53.709696,62.7183985 54.1246564,62.8308504 C54.9340506,63.0493891 55.361488,63.6532349 55.3563032,64.5358766 C55.3506209,65.418094 54.9195612,66.0164232 54.1053372,66.2247776 C53.6887669,66.3312887 53.2424128,66.341473 52.8089381,66.3418974 C44.7962982,66.3482626 36.7832558,66.3474139 28.7702133,66.3457165 C27.0580489,66.3452922 26.2059915,65.7295647 26.2139846,64.515508 C26.2220908,63.3039973 27.0660985,62.7065168 28.789935,62.7056681 L34.8247714,62.7042889 L34.8247714,62.7042889 L40.8596078,62.7048194 C44.849426,62.7048194 48.8392441,62.7014246 52.8286598,62.7099115 Z M81.6168844,53.6067177 C86.9022615,53.6058667 92.188051,53.6054412 97.4734281,53.6084197 C97.8503659,53.6088451 98.238851,53.5837414 98.6013546,53.666286 C99.429463,53.8556279 99.9161004,54.4257813 99.9750743,55.2980308 C100.031161,56.1273061 99.6492747,56.7557513 98.8945743,57.039977 C98.4883558,57.192727 98.022751,57.2280425 97.5839525,57.2297444 C94.2892523,57.2446365 90.9941398,57.2378287 87.6994396,57.2378287 C84.3358678,57.2378287 80.9722961,57.2344248 77.6087243,57.2399641 C76.6408108,57.2416581 75.8155892,56.9714735 75.4840159,55.9358367 C75.1095526,54.7674478 75.9125043,53.6671369 77.1901337,53.6245882 C78.6640676,53.5760826 80.1413008,53.6067177 81.6168844,53.6067177 Z M46.001705,51.7907012 C47.2883589,51.7974981 48.0654429,52.5196711 48.0707235,53.6025059 C48.0759495,54.7078555 47.3247279,55.3939199 46.0223141,55.4079386 C44.1384006,55.4283293 42.2544872,55.4130363 40.3705737,55.4134611 C38.4866603,55.4138859 36.6027469,55.4257805 34.7188334,55.4100626 C33.3634826,55.3985928 32.5605362,54.6870399 32.5896314,53.5702205 C32.6175143,52.4933331 33.3998515,51.7957989 34.6982243,51.7898516 C38.4660512,51.7715848 42.2338781,51.7703104 46.001705,51.7907012 Z M84.5035008,44.4927144 C88.4919133,44.4922891 92.4807281,44.4910132 96.4691405,44.4939902 C96.8369179,44.4944155 97.2091214,44.4914385 97.5720702,44.5437486 C98.4629444,44.6713341 99.0757725,45.3492385 99.0697809,46.2410612 C99.0628963,47.2128376 98.5965353,47.8469376 97.67508,48.034063 C97.3173622,48.1072121 96.9447563,48.1276257 96.5789909,48.128051 C88.5349682,48.1331545 80.4905431,48.1318786 72.4465204,48.1318786 C72.3125271,48.1318786 72.1785338,48.1352809 72.0445405,48.1301775 C70.703803,48.0812697 69.8958195,47.3629632 69.9284125,46.2512681 C69.9602007,45.1646648 70.7162769,44.5033465 72.0352857,44.4986684 C76.1910892,44.4837834 80.347295,44.4931397 84.5035008,44.4927144 Z M76.9384528,33.5653375 C78.242274,33.624743 79.0237532,34.2998443 79.034437,35.3750843 C79.0449072,36.4558406 78.2691234,37.1737988 76.9648953,37.1899231 C74.7290758,37.2175042 72.4928495,37.197561 70.2566232,37.1988339 C68.2575663,37.1996826 66.2585093,37.2047745 64.2598592,37.1958637 C63.8550847,37.1941664 63.4417673,37.1865285 63.0475698,37.1029365 C62.2054762,36.9242956 61.7628686,36.3107213 61.7327648,35.4548575 C61.7026609,34.5985693 62.1029605,33.9451085 62.9275613,33.709608 C63.34454,33.5903726 63.7969111,33.570005 64.2334166,33.5687321 C68.3328258,33.5589726 72.4326419,33.5627915 76.5320511,33.5632158 C76.6675183,33.5632158 76.8033924,33.5589726 76.9384528,33.5653375 Z M89.3562315,19.4436789 C89.3562315,23.4550708 89.3397022,27.6874327 89.367923,31.9193906 C89.3747766,32.9870753 90.0053104,33.6419058 91.0692354,33.650793 C95.2934894,33.6847262 99.5181465,33.6645279 103.549692,33.6645279 C98.8235111,28.9292271 94.0441132,24.1406028 89.3562315,19.4436789 Z M76.5029409,22.6378126 C76.9002956,22.6378126 77.308866,22.647604 77.6922012,22.7429642 C78.5690252,22.961356 79.1242003,23.7255143 79.0224583,24.5897157 C78.9099011,25.5399115 78.4055971,26.1427239 77.4734958,26.244044 C77.1097881,26.2840612 76.7404725,26.2746955 76.3739609,26.2746955 C70.433668,26.2763984 64.4937757,26.2759726 58.5534829,26.2759726 C52.5466972,26.2759726 46.5399115,26.2768241 40.5331259,26.2755469 C38.8639957,26.2751212 38.0805019,25.7127517 38.0536644,24.5079784 C38.026827,23.276385 38.8816203,22.6344069 40.5619661,22.6339812 C52.5426916,22.6331297 64.522616,22.632704 76.5029409,22.6378126 Z" id="形状结合"></path>
            </g>
        </g>
    </g>
</svg>