<?xml version="1.0" encoding="UTF-8"?>
<svg width="130px" height="130px" viewBox="0 0 130 130" version="1.1" xmlns="http://www.w3.org/2000/svg" xmlns:xlink="http://www.w3.org/1999/xlink">
    <!-- Generator: Sketch 59 (86127) - https://sketch.com -->
    <title>2</title>
    <desc>Created with Sketch.</desc>
    <g id="页面-4" stroke="none" stroke-width="1" fill="none" fill-rule="evenodd">
        <g id="入口备份-3" transform="translate(-679.000000, -534.000000)" fill="#3296FF">
            <g id="编组-6" transform="translate(679.000000, 499.000000)">
                <path d="M117.358682,86.8817583 C124.862316,116.453686 105.874053,146.741275 75.9839087,152.876052 C47.1470988,158.79533 19.0342979,140.771391 12.3537654,112.060617 C11.354827,107.767497 10.9200842,103.403948 11.0120085,98.9902149 C11.2822996,88.3679035 14.3077885,78.6164462 20.2525053,69.7894015 C21.1042805,68.5246599 22.3342946,68.1611363 23.3817252,68.8460114 C24.4831297,69.5658893 24.6332445,70.8251486 23.7308688,72.1712824 C19.273807,78.8214026 16.5165008,86.1036828 15.6002099,94.0636689 C14.294295,105.40628 16.4566235,116.058534 22.4510975,125.774566 C29.9547317,137.937003 40.7212555,145.845118 54.7742826,148.635646 C72.3706105,152.129606 87.7573827,147.44091 100.509133,134.767347 C108.197459,127.126604 112.843008,117.782108 114.205848,107.03328 C116.440704,89.3994334 110.914707,74.468819 97.6957449,62.5480283 C90.4126446,55.9801436 81.7709206,52.0838623 72.0602607,50.7465846 C59.7976484,49.0575915 48.3990398,51.5508068 37.9428658,58.2253868 C37.6173358,58.4332954 37.3040343,58.6601813 36.976396,58.8642943 C35.7560803,59.6242358 34.5075127,59.4260269 33.8311525,58.3717241 C33.188526,57.3697147 33.4516487,56.0708137 34.6348573,55.3842517 C37.5439651,53.6961021 40.3961472,51.8430595 43.4684416,50.5121077 C74.1555436,37.2186147 109.135256,54.4716472 117.358682,86.8817583 Z M64.9815021,55.2908405 C89.6218429,55.2887319 109.703499,75.3816344 109.682853,100.01816 C109.662597,124.666494 89.5552189,144.742528 64.9325883,144.69832 C40.2838141,144.653966 20.2228196,124.531965 20.2863408,99.9161037 C20.3497426,75.2930729 40.3812201,55.2933708 64.9815021,55.2908405 Z M50.6134869,104.219346 C45.8317385,112.503214 41.1689014,120.58086 36.4567287,128.744537 C46.2635296,137.962096 57.7502674,141.737765 71.2901209,140.031903 C64.3430924,127.999778 57.5183484,116.179357 50.6134869,104.219346 Z M102.783879,114.603385 L61.5491008,114.603385 C61.7502378,114.996429 61.8910759,115.304707 62.0593226,115.596538 C66.3932564,123.104861 70.7444787,130.603484 75.0446789,138.131628 C75.4849033,138.902112 75.8682022,139.035798 76.6816054,138.774752 C87.389517,135.342786 95.4349984,128.699835 100.795701,118.821018 C101.52477,117.477836 102.104989,116.054106 102.783879,114.603385 Z M54.1112472,89.710031 L25.7876109,89.710031 C22.7199549,102.788024 25.239017,114.611819 33.4776236,125.457643 C40.4115804,113.444074 47.2371677,101.619435 54.1112472,89.710031 Z M59.7641677,89.6902101 C59.399844,89.694849 58.8816105,89.9575813 58.7019787,90.2595336 C56.9081905,93.2727309 55.1553045,96.3108098 53.4407905,99.3695531 C53.263267,99.6871091 53.2510385,100.27288 53.4264537,100.586219 C55.139281,103.646227 56.8930104,106.683462 58.6846901,109.697925 C58.866852,110.00536 59.3661104,110.283696 59.7287474,110.296769 C61.4462131,110.359184 63.1674738,110.324602 64.8874695,110.324602 C66.6424639,110.324602 68.399145,110.362136 70.1516094,110.295925 C70.5467151,110.281165 71.0961523,110.006203 71.2901209,109.681478 C73.0712589,106.701596 74.8072782,103.694303 76.5011303,100.663815 C76.6921472,100.321799 76.7069057,99.6930132 76.5184188,99.356058 C74.8262533,96.3251484 73.0877041,93.3191203 71.3078311,90.3383954 C71.1109108,90.0090312 70.5728587,89.6990662 70.1887165,89.6935838 C66.7145697,89.6442425 63.2387362,89.6476162 59.7641677,89.6902101 Z M96.4352018,74.6288622 C89.559014,86.5424837 82.7325833,98.3692306 75.8585038,110.279478 L104.058591,110.279478 C107.294072,99.1354979 105.000182,84.9395217 96.4352018,74.6288622 Z M58.7563742,60.0862313 C65.6097918,71.9581024 72.4379092,83.7856927 79.3554208,95.7688982 C84.1186156,87.518768 88.7789227,79.4466042 93.4670601,71.3259424 C83.9022984,61.5630986 69.9331839,58.0294974 58.7563742,60.0862313 Z M54.4051519,60.9958837 C42.0147733,64.0322757 31.0909662,74.3741426 27.3650818,85.383594 L68.4813709,85.383594 C63.7379946,77.1655147 59.064194,69.0684693 54.4051519,60.9958837 Z M28.307938,61.2086415 C29.4763882,61.2077986 30.4356895,62.1929391 30.4074376,63.3644804 C30.3791856,64.5389737 29.3798255,65.4688687 28.206737,65.4123581 C27.0846707,65.3587995 26.1751265,64.3833586 26.2029567,63.2632673 C26.230787,62.1478149 27.1921967,61.2094855 28.307938,61.2086415 Z" id="形状结合"></path>
            </g>
        </g>
    </g>
</svg>