<?xml version="1.0" encoding="UTF-8"?>
<svg width="130px" height="130px" viewBox="0 0 130 130" version="1.1" xmlns="http://www.w3.org/2000/svg" xmlns:xlink="http://www.w3.org/1999/xlink">
    <!-- Generator: Sketch 59 (86127) - https://sketch.com -->
    <title>3</title>
    <desc>Created with Sketch.</desc>
    <g id="页面-4" stroke="none" stroke-width="1" fill="none" fill-rule="evenodd">
        <g id="入口备份-3" transform="translate(-1113.000000, -534.000000)" fill="#3296FF">
            <g id="编组-7" transform="translate(1113.000000, 534.000000)">
                <path d="M30.2769518,16.0019217 L32.3835464,16.0160002 C33.3801587,16.0257143 34.0487773,16.6655802 34.04583,17.523803 C34.0428827,18.381181 33.3746851,19.0104881 32.3751255,19.0244257 C30.7755776,19.0468105 29.1751876,19.0303387 27.5049042,19.0303387 L27.5049042,19.0303387 L27.5049042,87.5297773 L63.315578,87.5297773 L63.315578,19.0316058 L63.315578,19.0316058 L40.5366514,19.0316058 C40.2019211,19.0316058 39.8659276,19.049767 39.5337235,19.0218916 C38.6587931,18.9484021 38.0832253,18.3516163 38.0748045,17.5364736 C38.0663836,16.7154179 38.6326884,16.1042721 39.50004,16.019379 C39.765298,15.9936154 40.0343454,16.0088202 40.3021297,16.0088202 L40.3021297,16.0088202 L103.338802,16.0088202 C105.179608,16.0088202 105.577916,16.404988 105.5796,18.2371584 C105.580106,18.6184593 105.580442,18.9997434 105.580658,19.3818485 L105.580442,24.0601492 C106.005697,24.0846457 106.35769,24.1222352 106.710105,24.1226575 C109.686468,24.1273034 112.66241,24.1197011 115.639195,24.1268811 C119.088812,24.1353282 120.99867,26.0380317 120.99867,29.4658545 C120.999933,49.8613158 120.999933,70.2571995 120.99867,90.6526608 C120.998249,93.8976044 119.050497,95.8890022 115.847612,95.8995611 C111.801374,95.9130764 107.754716,95.9287035 103.7089,95.8729528 C103.141753,95.8653504 102.447872,95.5874417 102.060932,95.1908515 C101.789779,94.9125204 101.746833,94.1075142 101.956513,93.7421783 C102.18935,93.3350293 102.813759,92.9435074 103.286171,92.9198556 C105.153924,92.8269377 107.029256,92.8801543 108.902483,92.879732 C111.209807,92.8793096 113.517552,92.8886014 115.824454,92.8759308 C117.342741,92.8674837 117.982728,92.2377543 117.983149,90.7434668 C117.986939,70.2474853 117.986939,49.7510815 117.982728,29.2551 C117.982728,27.9229963 117.413897,27.1935915 116.195815,27.177542 C112.785355,27.1323502 109.374474,27.1623373 105.963172,27.1686726 C105.871384,27.1686726 105.779175,27.2307586 105.63602,27.2827081 L105.63602,27.2827081 L105.63602,29.3868744 C105.976645,29.4050356 106.326112,29.4392462 106.675579,29.4400909 C108.681856,29.4455815 110.688554,29.428265 112.695252,29.4476933 C114.67795,29.4666992 115.739824,30.5103353 115.740666,32.5034225 C115.75035,50.8530024 115.75035,69.2021599 115.739824,87.5513174 C115.738561,89.4738715 114.67795,90.5242652 112.768514,90.6150713 C112.501992,90.6277419 112.233787,90.6192948 111.966003,90.6192948 C83.7421292,90.6192948 46.2552774,90.6197172 18.0314038,90.615916 C17.531624,90.615916 17.0242654,90.6091583 16.5337486,90.5255323 C15.3581925,90.3249143 14.6276803,89.6043788 14.3620013,88.4445955 C14.2731609,88.0581419 14.2571612,87.647614 14.2571612,87.2480674 C14.2521087,69.0999503 14.2529507,50.9518331 14.2533718,32.803716 C14.2533718,32.6022533 14.2470561,32.4003682 14.2605295,32.2001725 C14.3716853,30.5213165 15.4175597,29.4814816 17.1067901,29.4540286 C19.1463295,29.421085 21.186711,29.4438921 23.2266714,29.442625 L23.2266714,29.442625 L24.3601231,29.442625 L24.3601231,27.2273798 C24.0620236,27.2028832 23.7470824,27.1551573 23.4321411,27.1543126 C20.4220942,27.148822 17.4124684,27.1462879 14.4024215,27.1526232 C12.5620362,27.1564243 12.0142573,27.7122418 12.0142573,29.5579276 C12.0134152,49.8528687 12.0134152,70.1478099 12.0142573,90.4431733 C12.0142573,92.3403863 12.5569836,92.8788873 14.4761043,92.8788873 C16.0267653,92.8789423 17.6168246,92.878992 19.2411433,92.8790368 L95.0694884,92.8793096 C95.3705352,92.8793096 95.671582,92.8742414 95.9726288,92.880999 C97.0513447,92.9042285 97.7275421,93.4900331 97.717437,94.3888018 C97.707753,95.2858811 97.0361871,95.8919587 95.9473661,95.8961823 C92.1348085,95.911387 88.3226719,95.9029399 84.5105353,95.9029399 L84.5105353,95.9029399 L83.352242,95.9029399 C83.3282425,96.2627853 83.2937168,96.5525199 83.2928747,96.8430993 C83.2869801,98.251649 83.4419245,99.680894 83.2596122,101.065792 C82.8191997,104.415479 84.0793858,107.09109 86.269238,109.444867 C86.5222858,109.716863 86.9879609,109.920015 87.3605853,109.929729 C89.2653904,109.977878 91.1723008,109.935642 93.0783691,109.957605 C95.2374851,109.982524 96.4660929,111.246206 96.4892503,113.429352 C96.4976712,114.234359 96.5124078,115.040209 96.4846188,115.844371 C96.4180938,117.749186 95.1120139,119.056793 93.2156296,119.058483 C82.5808885,119.069886 62.6835903,119.066508 52.0492702,119.061439 C50.8935032,119.061017 50.2000429,118.459585 50.2177268,117.525339 C50.2354107,116.599962 50.9250815,116.044144 52.103585,116.043722 C54.7817573,116.04284 58.090331,116.042275 61.7004086,116.041914 L93.4109942,116.041188 L93.4109942,113.07542 L36.6011488,113.07542 L36.6011488,115.987127 C36.9350371,116.00571 37.2571361,116.038654 37.5792351,116.039076 C39.8200338,116.043722 42.0604114,116.036542 44.3007889,116.043722 C45.5020288,116.047523 46.1546477,116.573776 46.1723316,117.52196 C46.1895944,118.482392 45.5327651,119.056793 44.3622614,119.061439 C41.819995,119.071153 39.2785706,119.081712 36.7371462,119.05806 C34.8988661,119.040744 33.5894178,117.746652 33.5182613,115.899277 C33.4824725,114.961229 33.4803673,114.019381 33.5199454,113.082178 C33.5957334,111.275348 34.8618141,110.006175 36.6655686,109.968586 C38.6381619,109.927618 40.6124394,109.988859 42.5837696,109.924661 C43.0069193,109.910301 43.4191218,109.548344 43.8355348,109.343925 C43.8620606,109.330832 43.8742709,109.289864 43.8970073,109.265789 C46.1554898,106.894273 47.1019978,104.113919 46.7394785,100.81956 C46.5655871,99.2370002 46.7095843,97.6189631 46.7095843,95.9029399 L46.7095843,95.9029399 L45.4439247,95.9029399 C35.1439139,95.9029399 24.8439032,95.9037846 14.5438925,95.9025176 C10.8332276,95.9020952 9,94.0623224 9,90.3434979 L9,90.3434979 L9,29.6601372 C9,25.9860822 10.8307013,24.131527 14.4672624,24.1260364 C17.3762586,24.1222352 20.2856758,24.125614 23.1950931,24.1251917 L23.1950931,24.1251917 L24.4190693,24.1251917 L24.4190693,18.8352113 C24.4194904,18.4327082 24.406859,18.0293604 24.4245429,17.627702 C24.4700157,16.5777306 25.0022159,16.0274037 26.063669,16.0160002 C28.1701545,15.9940378 30.277061,15.9953048 32.3835464,16.0160002 Z M80.2756701,95.9705165 L49.7238417,95.9705165 C49.7238417,97.8081776 49.6531062,99.5824856 49.7398413,101.349191 C49.88847,104.383803 49.5310033,107.242715 47.4089392,109.619722 C47.3748346,109.658156 47.3929395,109.743471 47.379045,109.885805 L47.379045,109.885805 L82.7905687,109.885805 C82.4141549,109.359552 82.1328972,108.962539 81.8474291,108.568061 C80.8365013,107.17007 80.3085116,105.603983 80.2832489,103.881624 C80.2584073,102.172781 80.2760911,100.463093 80.2756701,98.7534052 L80.2756701,98.7534052 L80.2756701,95.9705165 Z M112.667042,32.549459 L105.645283,32.549459 L105.645283,87.5361127 L112.667042,87.5361127 L112.667042,32.549459 Z M102.506397,19.0316058 L66.6839337,19.0316058 L66.6839337,87.5297773 L102.506397,87.5297773 L102.506397,19.0316058 Z M24.3504391,32.5165154 L17.3413119,32.5165154 L17.3413119,87.5057032 L24.3504391,87.5057032 L24.3504391,32.5165154 Z M56.0724355,29.7970932 L56.0724355,77.6811224 L52.8260607,77.6811224 L52.8260607,29.7970932 L56.0724355,29.7970932 Z M47.1449046,29.7970932 L47.1449046,77.6811224 L43.8985298,77.6811224 L43.8985298,29.7970932 L47.1449046,29.7970932 Z M38.2173738,29.7970932 L38.2173738,77.6811224 L34.9709989,77.6811224 L34.9709989,29.7970932 L38.2173738,29.7970932 Z M95.8405276,29.7970932 L95.8405276,77.6811224 L92.5941527,77.6811224 L92.5941527,29.7970932 L95.8405276,29.7970932 Z M86.101403,29.7970932 L86.101403,77.6811224 L82.8550281,77.6811224 L82.8550281,29.7970932 L86.101403,29.7970932 Z M77.1738721,29.7970932 L77.1738721,77.6811224 L73.9274973,77.6811224 L73.9274973,29.7970932 L77.1738721,29.7970932 Z" id="形状结合"></path>
            </g>
        </g>
    </g>
</svg>