<?xml version="1.0" encoding="UTF-8"?>
<svg width="130px" height="130px" viewBox="0 0 130 130" version="1.1" xmlns="http://www.w3.org/2000/svg" xmlns:xlink="http://www.w3.org/1999/xlink">
    <!-- Generator: Sketch 59 (86127) - https://sketch.com -->
    <title>4</title>
    <desc>Created with Sketch.</desc>
    <g id="页面-4" stroke="none" stroke-width="1" fill="none" fill-rule="evenodd">
        <g id="入口备份-3" transform="translate(-1546.000000, -534.000000)" fill="#3296FF" fill-rule="nonzero">
            <g id="编组-8" transform="translate(1546.000000, 534.000000)">
                <path d="M60.4976036,16 C73.4639486,16.0132765 83.9964335,26.3138644 84.2189187,39.1031481 L84.2224968,39.4914835 C84.2090672,52.3292133 73.8051071,62.7563784 60.8897389,62.9734318 L60.4976042,62.9768759 C55.6049074,62.9718645 51.0588293,61.5017023 47.2827657,58.9856176 C47.1159575,59.1231361 46.9307306,59.2446339 46.729901,59.34607 L46.5687155,59.421668 C32.8912626,65.3231418 24.0206392,78.9221859 24.0341164,93.9683691 L24.0355251,95.0799691 C24.1093461,95.3362482 24.1488212,95.6064745 24.1488212,95.8856626 L24.1488212,101.837366 C24.1160989,102.287951 24.1851793,102.587753 24.4293169,102.895931 L24.5292174,103.012201 C25.0900544,103.602447 25.8806975,103.935827 26.7072923,103.9306 L67.6919127,103.9306 C69.3861616,103.9306 70.7596238,105.265606 70.7596238,106.912416 C70.7596238,108.559226 69.3861616,109.894232 67.6919127,109.894232 L26.7072927,109.894232 C24.2201459,109.894232 21.8513296,108.913846 20.1570446,107.205018 L19.9399215,106.978016 C18.5321968,105.494936 17.8385969,103.500586 18.0318052,101.491476 L18.0258224,100.089655 C18.0163331,100.016512 18.0094035,99.9425538 18.0051274,99.8678751 L18.0000078,99.6885571 L18.0000078,99.6885571 L18.0000078,93.9607392 C17.9900768,77.146146 27.5197115,61.8877505 42.3814642,54.635144 C38.9694893,50.6393397 36.8802035,45.4998735 36.7824314,39.879708 L36.7788542,39.4914559 C36.7922828,26.6550435 47.1916341,16.2272395 60.105513,16.0036442 L60.4976036,16 Z M96.0371385,66.0981919 L96.19372,66.1263023 L96.19372,66.1263023 L96.3477423,66.1659913 C99.1926419,67.0233915 101.815312,68.4814102 104.037325,70.4379436 L104.42525,70.7883683 C105.283486,71.576955 105.335957,72.9076483 104.542447,73.7605582 L104.418961,73.8827837 L104.418961,73.8827837 L104.285774,73.9944971 C103.02782,74.9592481 102.645486,76.6689579 103.349212,78.0644739 L103.44285,78.2372005 C104.265529,79.5869949 105.912775,80.1827962 107.405097,79.6958667 L107.590759,79.6293375 C108.690605,79.1983635 109.933765,79.7350585 110.367421,80.8280782 L110.414626,80.9595384 L110.414626,80.9595384 L110.453056,81.093793 C111.141812,83.9831694 111.180076,86.9858271 110.567848,89.8877903 L110.453055,90.3988126 C110.169479,91.5394346 109.00917,92.235635 107.861427,91.9538176 L107.718444,91.9134265 L107.718444,91.9134265 L107.578627,91.8632717 C106.105992,91.2757247 104.430545,91.7940072 103.548851,93.084122 L103.442846,93.2493821 C102.647975,94.6217941 102.950451,96.3519152 104.138703,97.3794346 L104.291833,97.5041384 C105.214152,98.2231117 105.375353,99.5489998 104.651894,100.465594 L104.543429,100.592377 L104.543429,100.592377 L104.425246,100.710268 C102.247308,102.721842 99.6602714,104.241898 96.8414778,105.169158 L96.3416739,105.326618 C96.1966079,105.375168 96.046243,105.405632 95.8940257,105.417462 L95.7413064,105.423061 C94.7426502,105.421889 93.8881818,104.730843 93.6729612,103.776503 L93.643095,103.615082 C93.4092729,101.992749 92.0175023,100.783782 90.3684298,100.770542 C88.8057334,100.770542 87.4448778,101.890494 87.1214754,103.41248 L87.0877004,103.597002 C86.9173468,104.742841 85.8445594,105.534487 84.6915759,105.365187 L84.5267331,105.334285 L84.5267331,105.334285 L84.3648805,105.290469 C81.5463533,104.41556 78.9518563,102.949679 76.7556647,100.994143 L76.3722717,100.643986 C75.5189987,99.8452352 75.4788424,98.5102988 76.28258,97.6623231 L76.384751,97.5615997 L76.384751,97.5615997 L76.4935552,97.467989 C77.7149417,96.4849413 78.0718689,94.7947286 77.3745677,93.4142398 L77.2819005,93.2433654 C76.473926,91.9242885 74.8744448,91.3252638 73.4021924,91.7665234 L73.2188898,91.8271222 C72.1225687,92.2394448 70.8974781,91.690465 70.4825829,90.6009417 C70.4485048,90.5114523 70.4205934,90.4197624 70.3990422,90.3265069 C70.0473189,88.7776792 69.8653931,87.2409046 69.8653931,85.7463159 C69.8653931,84.4385509 70.00468,83.0984872 70.2751289,81.7463115 L70.3990423,81.1661246 C70.5190485,80.6317364 70.8450217,80.1682095 71.3028756,79.8723072 L71.4602764,79.7800142 C71.9468081,79.5223403 72.5124905,79.462792 73.0389553,79.6091038 L73.2128284,79.6655092 C74.6553866,80.782345 76.7358508,80.5255464 77.8596598,79.0919344 C78.9834689,77.6583271 78.7250669,75.590772 77.2825039,74.4739361 C77.100664,74.3331552 76.9046958,74.2117591 76.6978498,74.1116095 L76.4874982,74.0186109 C76.0599711,73.6713807 75.7878288,73.1735982 75.7245611,72.6332485 L75.7112812,72.4517023 C75.680619,71.9078316 75.8743947,71.3778518 76.2430028,70.9816209 L76.3722774,70.8546639 C78.5214538,68.8437659 81.0787647,67.3166169 83.8699347,66.3743901 L84.3648862,66.2142073 C85.4862032,65.8746912 86.6721607,66.5028262 87.0138023,67.6171827 L87.0531095,67.7642226 L87.0531095,67.7642226 L87.0816494,67.9136949 C87.3217937,69.4640872 88.6156539,70.6281031 90.1741407,70.7273704 L90.3623786,70.7341283 C91.9480253,70.7213967 93.2957819,69.6031502 93.6049768,68.0749019 L93.6370438,67.889589 C93.8020411,66.7362547 94.8766032,65.9342128 96.0371385,66.0981919 Z M97.0511743,70.9269856 C95.7716291,73.3376124 93.2186031,74.958759 90.3623673,74.958759 C87.6306496,74.958759 85.1652647,73.4607821 83.8316993,71.2106255 L83.6978171,70.9751981 C82.6866789,71.4385781 81.7238932,71.9997428 80.8233887,72.6505838 C82.2545387,74.9467059 82.3636942,77.8936972 80.9446726,80.3525366 C79.6125059,82.6504083 77.042259,84.2427766 74.4485623,84.1246404 L74.1891591,84.1070909 C74.0765023,85.0456292 74.0604092,85.9927254 74.1408784,86.9337087 L74.1891597,87.4036231 C76.9412903,87.403982 79.4971779,88.8199229 80.9446728,91.1461213 C82.3697586,93.6170138 82.2606031,96.5640052 80.8294531,98.8601273 C81.726954,99.5170231 82.691161,100.077494 83.7038815,100.535513 C85.0016192,98.1610455 87.5425169,96.5579786 90.3623675,96.5579786 C93.2186013,96.5579711 95.7655631,98.1791177 97.0511725,100.583718 C97.9140208,100.201461 98.7501371,99.7395066 99.5480649,99.2054438 L99.9437932,98.9324382 C98.4795463,96.6576052 98.3701294,93.7814503 99.6388518,91.410242 L99.7800611,91.1581662 C101.16662,88.8264189 103.688511,87.4061111 106.399981,87.4101484 L106.681115,87.4156625 C106.783951,86.4696663 106.798642,85.5165859 106.725188,84.5685656 L106.681116,84.0950334 C103.962194,84.191818 101.40123,82.8563452 99.9339715,80.595701 L99.7861266,80.3585628 C98.441671,78.0204872 98.4561794,75.1548801 99.8061718,72.8365654 L99.9559236,72.5903181 C99.0499329,71.9348225 98.0761748,71.3772266 97.0511743,70.9269856 Z M91.0045494,78.0985122 C95.1266114,78.0985122 98.4807781,81.4196761 98.4807781,85.5011797 C98.4807781,89.5826833 95.1266114,92.9038472 91.0045494,92.9038472 C86.8824874,92.9038472 83.5283208,89.5826833 83.5283208,85.5011797 C83.5283208,81.4196761 86.8824874,78.0985122 91.0045494,78.0985122 Z M87.6823752,85.3749728 C87.6068162,87.1168921 88.9717002,88.5896416 90.7309292,88.664459 L90.8708155,88.6673654 L90.8708155,88.6673654 L91.0106953,88.6641919 C92.7697707,88.586017 94.1317866,87.1106563 94.0528374,85.3688891 C93.9814868,83.7948049 92.7518563,82.5239412 91.1866012,82.3692615 L91.0045495,82.3564146 C89.2453205,82.281599 87.7579361,83.6330535 87.6823752,85.3749728 Z M60.4976047,22.0827589 C50.9043628,22.0960213 43.1111091,29.7074804 42.9253966,39.1646699 L42.9220168,39.4913093 C42.9319529,48.9892204 50.6172057,56.7068048 60.1673663,56.8908048 L60.4974123,56.8941549 C70.0906541,56.8842178 77.8866286,49.2754504 78.0756492,39.8183309 L78.0791433,39.4916872 C78.0692042,29.9904874 70.3812618,22.2701717 60.827766,22.0861101 L60.4976047,22.0827589 Z" id="形状结合"></path>
            </g>
        </g>
    </g>
</svg>