<?xml version="1.0" encoding="UTF-8"?>
<svg width="80px" height="80px" viewBox="0 0 80 80" version="1.1" xmlns="http://www.w3.org/2000/svg" xmlns:xlink="http://www.w3.org/1999/xlink">
    <title>编组</title>
    <defs>
        <circle id="path-1" cx="30" cy="30" r="30"></circle>
        <filter x="-25.0%" y="-25.0%" width="150.0%" height="150.0%" filterUnits="objectBoundingBox" id="filter-2">
            <feOffset dx="0" dy="0" in="SourceAlpha" result="shadowOffsetOuter1"></feOffset>
            <feGaussianBlur stdDeviation="5" in="shadowOffsetOuter1" result="shadowBlurOuter1"></feGaussianBlur>
            <feColorMatrix values="0 0 0 0 0.781844429   0 0 0 0 0.781844429   0 0 0 0 0.781844429  0 0 0 0.5 0" type="matrix" in="shadowBlurOuter1"></feColorMatrix>
        </filter>
    </defs>
    <g id="页面-1" stroke="none" stroke-width="1" fill="none" fill-rule="evenodd">
        <g id="首页2" transform="translate(-1821.000000, -4143.000000)">
            <g id="编组" transform="translate(1831.000000, 4153.000000)">
                <g id="椭圆形">
                    <use fill="black" fill-opacity="1" filter="url(#filter-2)" xlink:href="#path-1"></use>
                    <use fill="#FFFFFF" fill-rule="evenodd" xlink:href="#path-1"></use>
                </g>
                <g id="回到顶部" transform="translate(15.000000, 12.000000)" fill="#8A8A8A" fill-rule="nonzero">
                    <path d="M9.36635586,23.6545179 C9.8899204,24.4491778 9.73514695,25.5100209 9.00636323,26.1219675 L8.8319918,26.2532147 L5.99142491,28.1206765 C5.67020811,28.3357486 5.4233202,28.6448496 5.28456434,29.0056584 L5.21331581,29.2269039 L4.27583501,32.9918269 L9.37573066,32.9918269 C10.326289,32.9919523 11.1263522,33.7033882 11.2375676,34.647418 L11.2506923,34.8667885 C11.2505669,35.8173469 10.539131,36.6174101 9.59510117,36.7286254 L9.37573066,36.7417504 L1.87588408,36.7417504 C1.33596152,36.7420126 0.822132601,36.5095076 0.465930588,36.1037532 C0.109728575,35.6979989 -0.0542678634,35.1583843 0.0159221452,34.6230435 L0.057171316,34.4130478 L1.57589025,28.3194225 C1.8835377,27.0857512 2.59994057,25.992642 3.60834863,25.2182359 L3.91959228,24.9932405 L6.76953396,23.1182789 C7.1850029,22.845026 7.69200511,22.7480105 8.17900447,22.848575 C8.66600383,22.9491395 9.09310732,23.2390461 9.36635586,23.6545179 L9.36635586,23.6545179 Z M23.0404511,23.0095311 L23.2316972,23.1201538 L26.0910137,25.0007404 C27.1465811,25.7052144 27.9329057,26.7459382 28.3222181,27.953805 L28.4253409,28.3194225 L29.9440598,34.4130478 C30.0749975,34.9370537 29.9736008,35.4920724 29.6658432,35.9359329 C29.3580856,36.3797933 28.8738652,36.6693752 28.3372177,36.7305004 L28.1253471,36.7417502 L20.6255005,36.7417502 C19.6334707,36.7406498 18.8139787,35.9669964 18.7558412,34.976671 C18.6977037,33.9863456 19.4210432,33.1221196 20.40613,33.0049516 L20.6255005,32.9918269 L25.7253962,32.9918269 L24.7879153,29.2269039 C24.6949119,28.8535134 24.4893855,28.517733 24.1991774,28.2650486 L24.0191811,28.1263014 L21.1692394,26.2513398 C20.3744748,25.7307455 20.0947253,24.6979681 20.5180865,23.8474186 C20.9414477,22.9968692 21.9340867,22.5974236 22.8285804,22.917658 L23.0404511,23.0114061 L23.0404511,23.0095311 Z" id="形状"></path>
                    <path d="M15.0006156,9.3305664e-07 C14.000636,9.3305664e-07 13.0421556,0.399793659 12.33817,1.10997913 L11.0125722,2.43557704 C6.36945064,7.08184298 4.21717194,13.661925 5.21706572,20.1539645 L7.52326854,35.1517827 C7.66389851,36.06623 8.45053309,36.7417502 9.37573066,36.7417502 L20.6255005,36.7417502 C21.5506981,36.7417502 22.3373327,36.06623 22.4779626,35.1517827 L24.7841654,20.1520896 C25.7839174,13.6609733 23.6323977,7.08177924 18.990534,2.43557704 L17.6593112,1.10435425 C16.955551,0.396803362 15.9985665,-0.000702892987 15.0006156,9.3305664e-07 Z M13.6637679,5.08677277 L15.0006156,3.75180011 L16.3374632,5.08677277 L16.73683,5.49926435 C20.2653952,9.27960742 21.865792,14.4691497 21.0792412,19.5802263 L19.0130335,32.9918269 L10.9844477,32.9918269 L8.92198996,19.5821012 C8.10488869,14.2706293 9.86651707,8.88756638 13.6656429,5.08677277 L13.6637679,5.08677277 Z" id="形状"></path>
                    <path d="M15.0006156,12.3672488 C15.9511739,12.3673742 16.7512372,13.0788101 16.8624525,14.02284 L16.8755772,14.2422105 L16.8755772,19.8670954 C16.8744768,20.8591252 16.1008234,21.6786172 15.1104981,21.7367547 C14.1201727,21.7948923 13.2559466,21.0715527 13.1387787,20.0864659 L13.1256539,19.8670954 L13.1256539,14.2422105 C13.1256539,13.2066978 13.9651029,12.3672488 15.0006156,12.3672488 Z" id="路径"></path>
                </g>
            </g>
        </g>
    </g>
</svg>