<?xml version="1.0" encoding="UTF-8"?>
<svg width="26px" height="26px" viewBox="0 0 26 26" version="1.1" xmlns="http://www.w3.org/2000/svg" xmlns:xlink="http://www.w3.org/1999/xlink">
    <title>头像</title>
    <g id="页面-1" stroke="none" stroke-width="1" fill="none" fill-rule="evenodd">
        <g id="拍机-任务中心-任务池" transform="translate(-187.000000, -28.000000)" fill-rule="nonzero">
            <g id="编组-3" transform="translate(0.000000, 20.000000)">
                <g id="编组-6" transform="translate(187.000000, 8.000000)">
                    <g id="头像" transform="translate(0.000000, 0.000000)">
                        <path d="M0,13.0039107 C0.00215952224,20.183103 5.8222479,26.0014394 13,26 C20.1777572,25.99856 25.995512,20.1778894 25.9947924,12.9986968 C25.9940729,5.81950425 20.1751514,0 12.9973967,0 C9.54970061,0.000343439299 6.24336893,1.3706295 3.80584632,3.8093738 C1.36832371,6.2481181 -0.000693368355,9.55552411 0,13.0039107 L0,13.0039107 Z" id="路径" fill="#FFFFFF"></path>
                        <path d="M22.5328018,21.7856396 C22.1850437,19.9618107 18.9809575,18.2187614 16.1051049,17.2664444 C15.9644478,17.2195662 15.0891751,16.8261301 15.6375091,15.1638352 C17.0702306,13.6956554 18.1564889,11.3312041 18.1564889,9.00321923 C18.1564889,5.42717362 15.7742816,3.54996552 13.0052166,3.54996552 C10.2361516,3.54996552 7.860444,5.42458338 7.860444,9.00321923 C7.860444,11.3390002 8.9467023,13.7126189 10.3820389,15.178183 C10.9421027,16.6437472 9.94178741,17.1896008 9.73080185,17.262559 C6.99560629,18.2487269 3.81754416,19.9983025 3.46719641,21.7817543 C-0.466510807,17.5076955 -1.08312378,11.1402934 1.95736334,6.19058989 C4.99785047,1.2408864 10.9554693,-1.0865008 16.5451358,0.491770243 C22.1348024,2.07004129 25.9961503,7.16986413 26,12.9791512 C26.0018639,16.2480531 24.7626132,19.3957054 22.5328271,21.7856396" id="路径" fill="#B8D4FF"></path>
                    </g>
                </g>
            </g>
        </g>
    </g>
</svg>