<?xml version="1.0" encoding="UTF-8"?>
<svg width="16px" height="16px" viewBox="0 0 16 16" version="1.1" xmlns="http://www.w3.org/2000/svg" xmlns:xlink="http://www.w3.org/1999/xlink">
    <title>关闭</title>
    <g id="页面-1" stroke="none" stroke-width="1" fill="none" fill-rule="evenodd">
        <g id="拍机-任务中心-拍摄中-拍摄中心" transform="translate(-1892.000000, -32.000000)" fill="#FFFFFF" fill-rule="nonzero">
            <g id="编组-3" transform="translate(0.000000, 20.000000)">
                <g id="关闭" transform="translate(1892.000000, 12.000000)">
                    <path d="M9.23863898,7.99989146 L15.753292,1.482804 C16.082236,1.15372614 16.082236,0.611485705 15.753292,0.282407846 L15.717707,0.246808394 C15.3887631,-0.0822694648 14.8467432,-0.0822694648 14.5177993,0.246808394 L8.00314623,6.7730128 L1.48871018,0.246808394 C1.15976621,-0.0822694648 0.617746376,-0.0822694648 0.2888024,0.246808394 L0.253217432,0.282407846 C-0.0844058106,0.611485705 -0.0844058106,1.15372614 0.253217432,1.482804 L6.76787047,8.00010854 L0.253217432,14.517196 C-0.0755095686,14.8462739 -0.0755095686,15.3885143 0.253217432,15.7175922 L0.2888024,15.7531916 C0.617746376,16.0822695 1.15976621,16.0822695 1.48871018,15.7531916 L8.00314623,9.23588707 L14.5177993,15.7529745 C14.8467432,16.0820524 15.3887631,16.0820524 15.717707,15.7529745 L15.753292,15.7173751 C16.082236,15.3882972 16.082236,14.8460568 15.753292,14.5169789 L9.23863898,7.99989146 Z" id="路径"></path>
                </g>
            </g>
        </g>
    </g>
</svg>