<?xml version="1.0" encoding="UTF-8"?>
<svg width="20px" height="20px" viewBox="0 0 20 20" version="1.1" xmlns="http://www.w3.org/2000/svg" xmlns:xlink="http://www.w3.org/1999/xlink">
    <title>删除</title>
    <g id="页面-1" stroke="none" stroke-width="1" fill="none" fill-rule="evenodd">
        <g id="拍机-任务中心-拍摄中-拍摄中心-进行拍摄" transform="translate(-1792.000000, -30.000000)" fill="#FFFFFF" fill-rule="nonzero">
            <g id="编组-3备份" transform="translate(0.000000, 20.000000)">
                <g id="删除" transform="translate(1792.000000, 10.000000)">
                    <path d="M1.94444445,4.00000001 L0.833333333,4.00000001 C0.373096042,4.00000001 0,3.66421357 0,3.25 C0,2.83578644 0.373096042,2.50000001 0.833333333,2.50000001 L19.1666667,2.50000001 C19.626904,2.50000001 20,2.83578644 20,3.25 C20,3.66421357 19.626904,4.00000001 19.1666667,4.00000001 L3.61111112,4.00000001 L3.61111112,17.25 C3.61111111,17.5815206 3.75744005,17.899463 4.01790725,18.1338835 C4.27837444,18.3683039 4.63164376,18.5 5,18.5 L15,18.5 C15.3683562,18.5 15.7216256,18.3683039 15.9820928,18.1338835 C16.2425599,17.899463 16.3888889,17.5815206 16.3888889,17.25 L16.3888889,6.25 C16.3888889,5.83578644 16.7619849,5.50000001 17.2222222,5.50000001 C17.6824595,5.50000001 18.0555555,5.83578644 18.0555555,6.25 L18.0555555,17.25 C18.0555555,18.76875 16.6875,20 15,20 L5,20 C3.3125,20 1.94444445,18.76875 1.94444445,17.25 L1.94444445,4.00000001 Z M7.77777779,1.5 C7.31754049,1.5 6.94444445,1.16421356 6.94444445,0.749999999 C6.94444445,0.335786437 7.31754049,0 7.77777779,0 L12.2222222,0 C12.6824595,0 13.0555555,0.335786437 13.0555555,0.749999999 C13.0555555,1.16421356 12.6824595,1.5 12.2222222,1.5 L7.77777779,1.5 L7.77777779,1.5 Z M6.94444445,8.24999999 C6.94444445,7.83578643 7.31754049,7.49999999 7.77777779,7.49999999 C8.23801508,7.49999999 8.61111112,7.83578643 8.61111112,8.24999999 L8.61111112,14.25 C8.61111112,14.6642135 8.23801508,15 7.77777779,15 C7.31754049,15 6.94444445,14.6642135 6.94444445,14.25 L6.94444445,8.24999999 Z M11.3888889,8.24999999 C11.3888889,7.83578643 11.7619849,7.49999999 12.2222222,7.49999999 C12.6824595,7.49999999 13.0555555,7.83578643 13.0555555,8.24999999 L13.0555555,14.25 C13.0555555,14.6642135 12.6824595,15 12.2222222,15 C11.7619849,15 11.3888889,14.6642135 11.3888889,14.25 L11.3888889,8.24999999 Z" id="形状"></path>
                </g>
            </g>
        </g>
    </g>
</svg>