<?xml version="1.0" encoding="UTF-8"?>
<svg width="128px" height="128px" viewBox="0 0 128 128" version="1.1" xmlns="http://www.w3.org/2000/svg" xmlns:xlink="http://www.w3.org/1999/xlink">
    <!-- Generator: Sketch 59 (86127) - https://sketch.com -->
    <title>画板备份</title>
    <desc>Created with Sketch.</desc>
    <g id="画板备份" stroke="none" stroke-width="1" fill="none" fill-rule="evenodd">
        <path d="M21.601,53.6 L14.935,53.6 L14.935,69 L18.499,69 L18.499,64.754 L21.601,64.754 C25.715,64.754 28.289,62.62 28.289,59.188 C28.289,55.734 25.715,53.6 21.601,53.6 Z M21.403,61.85 L18.499,61.85 L18.499,56.504 L21.403,56.504 C23.581,56.504 24.681,57.494 24.681,59.188 C24.681,60.86 23.581,61.85 21.403,61.85 Z M32.513,55.514 C33.789,55.514 34.647,54.678 34.647,53.534 C34.647,52.478 33.789,51.686 32.513,51.686 C31.237,51.686 30.379,52.522 30.379,53.6 C30.379,54.678 31.237,55.514 32.513,55.514 Z M30.797,69 L34.229,69 L34.229,57.164 L30.797,57.164 L30.797,69 Z M44.415,56.988 C42.831,56.988 41.555,57.494 40.697,58.528 L40.697,57.164 L37.419,57.164 L37.419,73.268 L40.851,73.268 L40.851,67.746 C41.731,68.714 42.941,69.176 44.415,69.176 C47.737,69.176 50.311,66.8 50.311,63.082 C50.311,59.364 47.737,56.988 44.415,56.988 Z M43.821,66.36 C42.105,66.36 40.807,65.128 40.807,63.082 C40.807,61.036 42.105,59.804 43.821,59.804 C45.537,59.804 46.835,61.036 46.835,63.082 C46.835,65.128 45.537,66.36 43.821,66.36 Z M64.193,63.126 C64.193,59.32 61.509,56.988 58.033,56.988 C54.425,56.988 51.719,59.54 51.719,63.082 C51.719,66.602 54.381,69.176 58.473,69.176 C60.607,69.176 62.257,68.516 63.357,67.262 L61.531,65.282 C60.717,66.052 59.815,66.426 58.561,66.426 C56.757,66.426 55.503,65.524 55.173,64.05 L64.127,64.05 L64.16825,63.57975 C64.182,63.4175 64.193,63.258 64.193,63.126 Z M58.055,59.584 C59.595,59.584 60.717,60.552 60.959,62.048 L55.129,62.048 C55.371,60.53 56.493,59.584 58.055,59.584 Z M66.723,69 L78.009,69 L78.009,66.096 L70.287,66.096 L70.287,53.6 L66.723,53.6 L66.723,69 Z M81.485,55.514 C82.761,55.514 83.619,54.678 83.619,53.534 C83.619,52.478 82.761,51.686 81.485,51.686 C80.209,51.686 79.351,52.522 79.351,53.6 C79.351,54.678 80.209,55.514 81.485,55.514 Z M79.769,69 L83.201,69 L83.201,57.164 L79.769,57.164 L79.769,69 Z M93.585,56.988 C91.979,56.988 90.593,57.538 89.669,58.55 L89.669,57.164 L86.391,57.164 L86.391,69 L89.823,69 L89.823,63.148 C89.823,60.97 91.011,59.958 92.661,59.958 C94.179,59.958 95.059,60.838 95.059,62.752 L95.059,69 L98.491,69 L98.491,62.224 C98.491,58.616 96.379,56.988 93.585,56.988 Z M113.187,63.126 C113.187,59.32 110.503,56.988 107.027,56.988 C103.419,56.988 100.713,59.54 100.713,63.082 C100.713,66.602 103.375,69.176 107.467,69.176 C109.601,69.176 111.251,68.516 112.351,67.262 L110.525,65.282 C109.711,66.052 108.809,66.426 107.555,66.426 C105.751,66.426 104.497,65.524 104.167,64.05 L113.121,64.05 L113.16225,63.57975 C113.176,63.4175 113.187,63.258 113.187,63.126 Z M107.049,59.584 C108.589,59.584 109.711,60.552 109.953,62.048 L104.123,62.048 C104.365,60.53 105.487,59.584 107.049,59.584 Z" id="PipeLine" fill="#322A31" fill-rule="nonzero"></path>
    </g>
</svg>