<?xml version="1.0" encoding="UTF-8"?>
<svg width="20px" height="21px" viewBox="0 0 20 21" version="1.1" xmlns="http://www.w3.org/2000/svg" xmlns:xlink="http://www.w3.org/1999/xlink">
    <!-- Generator: Sketch 63.1 (92452) - https://sketch.com -->
    <title>退出@1x</title>
    <desc>Created with Sketch.</desc>
    <g id="谱目" stroke="none" stroke-width="1" fill="none" fill-rule="evenodd">
        <g id="退出" fill="#FFFFFF" fill-rule="nonzero">
            <path d="M13.232,3.912 C12.8387733,3.70875921 12.6847592,3.22522674 12.888,2.83200001 C13.0912408,2.43877327 13.5747733,2.28475923 13.968,2.488 C17.9163307,4.54216263 19.9611135,9.01891917 18.9284458,13.3481797 C17.8957781,17.6774403 14.0504292,20.7492113 9.6,20.8 C5.1495708,20.7492113 1.30422186,17.6774403 0.271554199,13.3481797 C-0.761113459,9.01891917 1.28366929,4.54216263 5.232,2.488 C5.62522674,2.28475921 6.10875921,2.43877326 6.312,2.832 C6.51524079,3.22522674 6.36122674,3.70875921 5.968,3.912 C2.39543558,5.67468203 0.645378701,9.78201221 1.84879426,13.5796503 C3.05220982,17.3772885 6.8484346,19.7270837 10.7841786,19.1104935 C14.7199226,18.4939032 17.6156447,15.0957193 17.6,11.112 C17.6068346,8.08349397 15.9211717,5.30492887 13.232,3.912 L13.232,3.912 Z" id="路径"></path>
            <path d="M8.8,0.8 C8.8,0.3581722 9.1581722,0 9.6,0 C10.0418278,0 10.4,0.3581722 10.4,0.8 L10.4,8.8 C10.4,9.2418278 10.0418278,9.6 9.6,9.6 C9.1581722,9.6 8.8,9.2418278 8.8,8.8 L8.8,0.8 Z" id="路径"></path>
        </g>
    </g>
</svg>